<svg xmlns="http://www.w3.org/2000/svg" viewBox="0 0 292.67 373.47"><defs><style>.a{fill:#fff;}.b{fill:#005cb9;}.c{fill:#1d1d1b;}</style></defs><rect class="a" width="292.67" height="373.47"/><path class="b" d="M157.76,248.11a15,15,0,0,1-21.18,0L45.22,156.76a15,15,0,0,1,0-21.18l91.36-91.36a15,15,0,0,1,21.18,0l91.36,91.36a15,15,0,0,1,0,21.18Z" transform="translate(0 1.01)"/><path class="a" d="M146.4,89.24c16.87,0,22.45,15.2,20.22,19.67-7.81-10-31.52-11-36.82-.56-7.25,1.67,1.81-19.11,16.6-19.11" transform="translate(0 1.01)"/><path class="a" d="M133.26,184.37c3.63,5.86,3.21,6.14,5.3,9.35,2.78,4.18,8.92-13.67,11.43-10,3.77,16.74,10.33,12.83,21.62,7.53,8.09,6-27.34,22.87-24.27,3.48-6.27,4.19-6.27,9.07-11.57,8.51L132,193.3c-3.21,3.21-2.79,5.16-6.27,9.48-7.67-5.16,4.46-13.66,7.53-18.41" transform="translate(0 1.01)"/><path class="a" d="M152.17,126.36l4.7-1.45v-2.46c-2.24.15-6.37.22-9.92.22s-7.23-.07-9.48-.22v2.46l4.71,1.38v40l-4.71,1.45v2.46c2.25-.07,6.37-.21,9.85-.21s7.31.07,9.55.21v-2.46l-4.7-1.45Z" transform="translate(0 1.01)"/><path class="a" d="M175.57,142.43h1.59c7.53,0,9.38-2,9.38-8.4,0-5.72-2.46-8.4-7.67-8.4h-3.3Zm2.58,3.11h-2.58v21.57h4.75c6.44,0,8.32-4.85,8.32-10.64,0-6.37-3.33-10.93-10.49-10.93m18.74-12.24c0,5.8-4.19,8.69-9.77,10.28v.15c8.69,2.24,11.87,7.53,11.87,13.1,0,7.89-5.14,13.54-17.16,13.54-5.64,0-8.36-.36-13.36-.36-3.4,0-4.78.14-7.6.22v-2.47l4.71-1.23V126.14l-4.71-1.23v-2.47c.51.08,3.91.22,7.6.22,6.3-.07,6.71-.29,11.56-.29,10.93,0,16.86,3.69,16.86,10.93" transform="translate(0 1.01)"/><path class="a" d="M134.38,124.91v-2.46c-2.13.15-4.46.22-7.58.22s-6-.15-8.13-.22v2.46l6.12,1.37v23.58c0,10.46-2.83,16.62-10.89,16.62-7.24,0-10-5.07-10-16.62V126.35l4.32-1.44v-2.46c-2.06.15-5.78.22-9.11.22s-6.58-.15-8.65-.22v2.46l4.27,1.37v24.31c0,12.48,5.09,20.2,17.4,20.2,10.57,0,16.41-7.22,16.41-20.2V126.28Z" transform="translate(0 1.01)"/><path class="c" d="M118.36,331.14l2.38.44v.77c-1.1-.06-2.32-.08-3.45-.08s-2.38,0-3.46.08v-.77l2.35-.44V315.41l-2.35-.44v-.77c1.08.05,2.29.08,3.46.08s2.35,0,3.45-.08V315l-2.38.44Z" transform="translate(0 1.01)"/><path class="c" d="M127,331.14l2.35.44v.77c-2.16-.11-4.65-.11-6.83,0v-.77l2.38-.44v-16.5l-2.1-.44v-.77a26.91,26.91,0,0,0,3.92-.3H127Z" transform="translate(0 1.01)"/><path class="c" d="M134.9,331.14l2.35.44v.77c-2.16-.11-4.65-.11-6.83,0v-.77l2.38-.44v-16.5l-2.11-.44v-.77a27,27,0,0,0,3.93-.3h.28Z" transform="translate(0 1.01)"/><path class="c" d="M138.57,326c0-4.68,3.16-6.88,6.45-6.88,2.21,0,4.56.94,4.56,4.29l-.39,1.7h-8.57l0,.5c0,3.55,1.61,5.33,4.54,5.33a7.91,7.91,0,0,0,4.2-1.07l.28.66a8.11,8.11,0,0,1-5.15,2.06C140.57,332.62,138.57,329.74,138.57,326Zm2.16-1.57,6.58-.44a4,4,0,0,0,.09-1.16c0-1.9-1.14-2.89-2.52-2.89C142.61,320,141.12,322,140.73,324.46Z" transform="translate(0 1.01)"/><path class="c" d="M158.68,329.19c0-1.79-1.66-2-3.16-2.62-2-.79-3.67-1.37-3.67-3.71s1.74-3.71,4.45-3.71A8.79,8.79,0,0,1,160,320l-.81,3.38-.8-.13-.19-2.75a3,3,0,0,0-2-.53c-1.58,0-2.49.83-2.49,2.2,0,1.79,1.58,2,3,2.48,2,.69,4.1,1.38,4.1,3.85s-2.44,4.12-4.92,4.12a7.4,7.4,0,0,1-4-.85l.8-3.52.8.14.19,2.75a3,3,0,0,0,2.24.66A2.5,2.5,0,0,0,158.68,329.19Z" transform="translate(0 1.01)"/><path class="c" d="M178.91,322.26c3.21.88,4.34,2.88,4.34,5,0,2.92-2,5.18-5.86,5.18-2,0-3.43-.14-4.86-.14s-1.91,0-3.21.08v-.77l2.32-.44V315.41l-2.32-.44v-.77c.8.05,1.6.08,2.41.08,1.46,0,2.82-.11,4.67-.11,3.95,0,6.08,1.43,6.08,4.18C182.48,320.52,180.93,321.62,178.91,322.26Zm-3.56-.42c3.65,0,4.78-.88,4.78-3.21,0-2.15-.91-3.36-4-3.36h-2.3v6.57Zm-1.5,1.08v8.36h2.82c3.32,0,4.26-2,4.26-4.18,0-2.37-1.43-4.18-5.06-4.18Z" transform="translate(0 1.01)"/><path class="c" d="M192.52,323.6c0-2.2-.91-3.35-2.52-3.35a3.36,3.36,0,0,0-2.18.82l-.2,2.84-.74.19-1.25-2.37a8.09,8.09,0,0,1,5.75-2.58c2.13,0,3.29,1.37,3.29,3.71v8.28l2,.44v.77c-.61,0-1.19-.06-1.77-.06s-1.41,0-2.1.06l-.3-1.76a5.61,5.61,0,0,1-4,2c-2.07,0-3.23-1.42-3.23-3.49a2.88,2.88,0,0,1,3-3.05c1.52,0,2.82.49,4.29.36Zm-3.4,3.55c-1.5,0-1.85,1.16-1.85,2.06,0,1.13.46,2,1.79,2a5,5,0,0,0,3.46-1.32V327a4.66,4.66,0,0,1-1.33.19C190.11,327.18,189.67,327.15,189.12,327.15Z" transform="translate(0 1.01)"/><path class="c" d="M202.69,331.14l2.35.44v.77c-2.15-.11-4.64-.11-6.83,0v-.77l2.38-.44v-16.5l-2.1-.44v-.77a27.15,27.15,0,0,0,3.93-.3h.27Z" transform="translate(0 1.01)"/><path class="c" d="M206.37,326c0-4.68,3.15-6.88,6.44-6.88,2.21,0,4.56.94,4.56,4.29l-.38,1.7h-8.57l0,.5c0,3.55,1.6,5.33,4.53,5.33a7.88,7.88,0,0,0,4.2-1.07l.28.66a8.05,8.05,0,0,1-5.14,2.06C208.36,332.62,206.37,329.74,206.37,326Zm2.16-1.57,6.58-.44a4.44,4.44,0,0,0,.08-1.16c0-1.9-1.13-2.89-2.52-2.89C210.41,320,208.91,322,208.53,324.46Z" transform="translate(0 1.01)"/><path class="c" d="M226.66,323.6c0-2.2-.91-3.35-2.51-3.35a3.4,3.4,0,0,0-2.19.82l-.19,2.84-.75.19-1.24-2.37a8.06,8.06,0,0,1,5.75-2.58c2.13,0,3.29,1.37,3.29,3.71v8.28l2,.44v.77c-.61,0-1.19-.06-1.77-.06s-1.41,0-2.1.06l-.31-1.76a5.6,5.6,0,0,1-4,2c-2.08,0-3.24-1.42-3.24-3.49a2.89,2.89,0,0,1,3-3.05c1.52,0,2.82.49,4.28.36Zm-3.4,3.55a1.81,1.81,0,0,0-1.85,2.06c0,1.13.47,2,1.8,2a5,5,0,0,0,3.45-1.32V327a4.57,4.57,0,0,1-1.32.19C224.26,327.18,223.82,327.15,223.26,327.15Z" transform="translate(0 1.01)"/><path class="c" d="M240.27,320.47a4.31,4.31,0,0,0-3.43,2.23v8.44l2.9.44v.77c-2.16-.11-5.2-.11-7.38,0v-.77l2.38-.44V320.66l-2.1-.44v-.77a26.91,26.91,0,0,0,3.92-.3h.28v2.53h0s1.3-2.53,3.85-2.53a2.38,2.38,0,0,1,1.74.55l-1,3.49-.83-.08Z" transform="translate(0 1.01)"/><path class="c" d="M251,329.19c0-1.79-1.66-2-3.15-2.62-2-.79-3.68-1.37-3.68-3.71s1.75-3.71,4.45-3.71a8.72,8.72,0,0,1,3.68.85l-.8,3.38-.8-.13-.19-2.75a3,3,0,0,0-2-.53c-1.58,0-2.49.83-2.49,2.2,0,1.79,1.57,2,3,2.48,2,.69,4.09,1.38,4.09,3.85s-2.43,4.12-4.92,4.12a7.45,7.45,0,0,1-4-.85l.81-3.52.8.14.19,2.75a3,3,0,0,0,2.24.66A2.49,2.49,0,0,0,251,329.19Z" transform="translate(0 1.01)"/><path class="c" d="M52.66,331.06l2.62.35v.77a35.86,35.86,0,0,0-4.45.44h-.27V330.7h-.12a6,6,0,0,1-4.36,1.92c-3.4,0-5.23-2.61-5.23-6.73a6.47,6.47,0,0,1,6.69-6.74,5.73,5.73,0,0,1,3,.82v-5.33l-2.11-.44v-.77a27.46,27.46,0,0,0,4-.3h.25Zm-2.1-1.24V324c0-3.16-1.83-4-3.16-4-2.87,0-4.31,2.2-4.31,5.92s1.71,5.36,3.93,5.36A5.8,5.8,0,0,0,50.56,329.82Z" transform="translate(0 1.01)"/><path class="c" d="M56.61,326c0-4.68,3.15-6.88,6.44-6.88,2.22,0,4.57.94,4.57,4.29l-.39,1.7H58.66l0,.5c0,3.55,1.6,5.33,4.53,5.33a7.92,7.92,0,0,0,4.21-1.07l.27.66a8.05,8.05,0,0,1-5.14,2.06C58.6,332.62,56.61,329.74,56.61,326Zm2.16-1.57,6.58-.44a4.44,4.44,0,0,0,.08-1.16c0-1.9-1.13-2.89-2.51-2.89C60.65,320,59.16,322,58.77,324.46Z" transform="translate(0 1.01)"/><path class="c" d="M80.31,331.14l2.35.44v.77c-2.16-.11-4.65-.11-6.83,0v-.77l2.38-.44v-16.5l-2.11-.44v-.77a27,27,0,0,0,3.93-.3h.28Z" transform="translate(0 1.01)"/><path class="c" d="M84,326c0-4.68,3.15-6.88,6.45-6.88,2.21,0,4.56.94,4.56,4.29l-.39,1.7H86l0,.5c0,3.55,1.61,5.33,4.54,5.33a7.91,7.91,0,0,0,4.2-1.07l.28.66a8.11,8.11,0,0,1-5.15,2.06C86,332.62,84,329.74,84,326Zm2.16-1.57,6.58-.44a4.44,4.44,0,0,0,.08-1.16c0-1.9-1.13-2.89-2.51-2.89C88,320,86.53,322,86.14,324.46Z" transform="translate(0 1.01)"/><path class="c" d="M104.08,329.19c0-1.79-1.65-2-3.15-2.62-2-.79-3.68-1.37-3.68-3.71s1.75-3.71,4.46-3.71a8.71,8.71,0,0,1,3.67.85l-.8,3.38-.8-.13-.19-2.75a3,3,0,0,0-2-.53c-1.58,0-2.49.83-2.49,2.2,0,1.79,1.58,2,3,2.48,2,.69,4.1,1.38,4.1,3.85s-2.44,4.12-4.92,4.12a7.47,7.47,0,0,1-4-.85l.81-3.52.8.14.19,2.75a3,3,0,0,0,2.24.66A2.49,2.49,0,0,0,104.08,329.19Z" transform="translate(0 1.01)"/><path class="c" d="M54,305.86c-8.16,0-13.14-3.13-13.14-12.42V273.76H48.4v19.39c0,4.6,1.9,6.41,5.74,6.41,3.55,0,5.4-1.85,5.4-6.41v-19l7.59-1.23v20.53C67.13,302.64,62.1,305.86,54,305.86Z" transform="translate(0 1.01)"/><path class="c" d="M84.51,305.06V290.55c0-2.23-.71-3.28-2.42-3.28-2.09,0-3.7,2.33-3.65,2.38v15.41H70.71V283l6.07-1.24L78,284.38a9.68,9.68,0,0,1,6.59-2.61c3.88,0,7.68,1.81,7.68,7.4v15.89Z" transform="translate(0 1.01)"/><path class="c" d="M96.46,305.06V283l7.73-1.24v23.29Zm4.08-25.51a3.75,3.75,0,1,1,0-7.5c2.6,0,3.93,1.57,3.93,3.75S103.14,279.55,100.54,279.55Z" transform="translate(0 1.01)"/><path class="c" d="M121.26,305.06h-7.64L106.18,283l7.21-1.24,4.69,14.85,4.36-14.18h7.4Z" transform="translate(0 1.01)"/><path class="c" d="M136.85,295.1c0,3.08,1.47,5.21,4.89,5.21a14.2,14.2,0,0,0,6.78-1.7l2,5a23.85,23.85,0,0,1-10,2.18c-8.15,0-11.47-4.36-11.47-12,0-8.15,4.93-12,11.66-12,7.35,0,9.67,4.75,9.82,10.72l-.76,2.61Zm.14-3.75h6.5c-.05-3.27-1-4.74-3-4.74S137.14,288.22,137,291.35Z" transform="translate(0 1.01)"/><path class="c" d="M167.39,288a5.33,5.33,0,0,0-2-.42,4.92,4.92,0,0,0-4.17,2.27v15.18h-7.73V283l7.11-1.24.19,3.37a6.28,6.28,0,0,1,8.49-2.65Z" transform="translate(0 1.01)"/><path class="c" d="M177.44,305.81a18.61,18.61,0,0,1-9.06-2l1.71-5.07a13.36,13.36,0,0,0,6.5,2.13c1.75,0,2.65-.8,2.65-2,0-3.17-10.14-2.94-10.14-10.14,0-4.84,4.26-6.93,9.43-6.93,5.45,0,8.11,1.66,8.11,1.66l-1.8,5.08a10.78,10.78,0,0,0-5.88-1.8c-1.76,0-2.66.8-2.66,2s1.52,1.94,3.61,2.8c4.26,1.65,6.49,2.84,6.49,7.39C186.4,303.11,183,305.81,177.44,305.81Z" transform="translate(0 1.01)"/><path class="c" d="M188.53,305.06V283l7.73-1.24v23.29Zm4.08-25.51a3.75,3.75,0,1,1,0-7.5c2.61,0,3.94,1.57,3.94,3.75S195.22,279.55,192.61,279.55Z" transform="translate(0 1.01)"/><path class="c" d="M214.9,303.35a11,11,0,0,1-7.44,2.46c-3.09,0-6-1.56-6-5.83V286.61h-3.36l.85-3.7,2.51-.47.81-5.69,6.64-.76v6.45h5.21v4.17h-5.21V298c0,1.66.47,2.13,1.51,2.13a4.91,4.91,0,0,0,2.56-1Z" transform="translate(0 1.01)"/><path class="c" d="M229.65,305.06l-.86-2.33a8.8,8.8,0,0,1-6.87,3.08c-4,0-6.4-2.22-6.4-5.88,0-2.27.57-8.25,12.42-8.25v-1.89c0-2-1.47-2.66-3.65-2.66a13.4,13.4,0,0,0-6.12,1.85l-1.94-4.69c.19-.19,3.79-2.52,10-2.52,6,0,9.43,2.8,9.43,7.92v15.37Zm-1.71-9.53c-4.84,0-5.31,2.56-5.31,3.74s.52,2.18,1.94,2.18c2,0,3.37-2.08,3.37-2.08Z" transform="translate(0 1.01)"/><path class="c" d="M253.21,303.35a11,11,0,0,1-7.44,2.46c-3.08,0-6-1.56-6-5.83V286.61h-3.36l.85-3.7,2.51-.47.81-5.69,6.64-.76v6.45h5.22v4.17h-5.22V298c0,1.66.47,2.13,1.52,2.13a5,5,0,0,0,2.56-1Z" transform="translate(0 1.01)"/></svg>