<svg xmlns="http://www.w3.org/2000/svg" viewBox="0 0 1163.33 626.66"><defs><style>.cls-1{fill:#fefefe;}.cls-2{fill:#8d8d8d;}.cls-3{fill:#999;}.cls-4{fill:#181818;}.cls-5{fill:#ccc;}.cls-6{fill:#9b9b9b;}.cls-7{fill:#fdfdfd;}.cls-8{fill:#0c0c0c;}.cls-9{fill:#c7c7c7;}.cls-10{fill:#fafafa;}.cls-11{fill:#3b3b3b;}.cls-12{fill:#393939;}.cls-13{fill:#3a3a3a;}.cls-14{fill:#1c1c1c;}.cls-15{fill:#020202;}.cls-16,.cls-17{fill:none;stroke:#000;stroke-miterlimit:10;}.cls-16{stroke-width:3px;}.cls-17{stroke-width:5px;}.cls-18{font-size:22px;font-family:Arial-BoldMT, Arial;font-weight:700;}</style></defs><g id="Capa_2" data-name="Capa 2"><path class="cls-1" d="M570.4,562.37H99.67V84.64H1167.88V486.08a24.26,24.26,0,0,1-.87-3.8,13.49,13.49,0,0,0-7.65-11.51c-7.21-3.66-14.75-6.69-22.17-9.93a35.15,35.15,0,0,0-3.73-1.21c.4-5.23,1.2-10,1-14.75-.36-10,0-20-1.71-30.1-1.56-9.53-5.68-16.29-12.73-21.87-2.2-1.73-2.88-3.43-2.22-6.1a36.65,36.65,0,0,1,4.57-1.32c4.07-.67,6.74-2.8,9-6.34,1.66-2.64.94-4.9,1-7.48.1-4.39,1.37-8.76,1.3-13.13-.09-6.38-.94-12.74-1.47-19.11q0-9.62,0-19.24c1.23-11.62-4.37-21.25-14.82-25.93a34.76,34.76,0,0,0-19.16-2.84c-11,1.52-22,3.37-32.78,5.74-14.68,3.22-29.18,7.21-43.83,10.59-13.21,3.05-26.51,5.7-39.77,8.54-4.77,1-9.53,2.12-15,3.35a52.22,52.22,0,0,1,1.93-6.24c3.83-8.26,5-17.12,4.8-26-.38-21.51-2.69-42.71-14.08-61.74a104.07,104.07,0,0,0-7.45-11c-13-16.42-29.91-28.61-46-41.53-9-7.18-19.66-12.2-29.55-18.23-2.61-1.59-4.93-3.89-7.73-4.87-18.83-6.62-37.77-13-56.66-19.42-6.5-2.22-12.91-4.74-19.51-6.57-10.74-3-21.61-5.51-32.43-8.22-19.09-3.74-38.1-8-57.3-11.06-21-3.32-42.19-6.18-63.4-7.94-22.86-1.9-45.83-2.6-68.77-3.2-11.69-.3-23.42.94-35.14,1.19-33.81.75-67.67.56-101.11,6.87-16.33,3.08-32.81,5.45-49,9.17-11.63,2.68-22.86,7-34.27,10.68C333.71,127.08,316.05,132,299,138.4c-17.4,6.57-34.14,14.87-51.31,22.07a71.67,71.67,0,0,0-25.1,17c-3.91,4.18-9.27,7-13.23,11.13q-12.28,12.81-23.71,26.44c-4.5,5.35-9.27,10.9-12.08,17.17-4.81,10.72-8.67,21.78-9.78,33.85a128.31,128.31,0,0,0,5.78,50.95c.63,2,1.95,3.79,2.9,5.7,1.31,2.63,3.83,5.43,3.55,7.89-.36,3.23-3,6.2-4.59,9.3-1.25,2.39-2.88,4.67-3.63,7.21-1.7,5.78-3.12,11.64-4.39,17.53-4.4,20.53-.78,40.2,7.35,59.1,5.06,11.74,13,21.65,21.37,31.35a91,91,0,0,0,16.2,15.07,31.54,31.54,0,0,1,3.26,3c4.19,4,7.83,8.9,12.67,11.79,15.88,9.47,31.67,19.39,48.49,26.93,19.87,8.92,40.68,15.8,61.27,23,8.81,3.1,18,5.17,27.16,7.16,14.81,3.21,29.76,5.8,44.58,9,15.47,3.31,30.53,8.08,46.73,8,22.94-.09,45.89,1.28,68.84,1.81,10.57.25,21.14-.1,31.72,0,3.78,0,7.56.44,11.35.67Z" transform="translate(-4.56 -2.29)"/><path d="M564.38,561.52c-3.79-.23-7.57-.65-11.35-.67-10.58-.05-21.15.3-31.72,0-22.95-.53-45.9-1.9-68.84-1.81-16.2.06-31.26-4.71-46.73-8-14.82-3.17-29.77-5.76-44.58-9-9.14-2-18.35-4.06-27.16-7.16-20.59-7.24-41.4-14.12-61.27-23-16.82-7.54-32.61-17.46-48.49-26.93-4.84-2.89-8.48-7.8-12.67-11.79a31.54,31.54,0,0,0-3.26-3,91,91,0,0,1-16.2-15.07c-8.36-9.7-16.31-19.61-21.37-31.35-8.13-18.9-11.75-38.57-7.35-59.1,1.27-5.89,2.69-11.75,4.39-17.53.75-2.54,2.38-4.82,3.63-7.21,1.62-3.1,4.23-6.07,4.59-9.3.28-2.46-2.24-5.26-3.55-7.89-.95-1.91-2.27-3.7-2.9-5.7a128.31,128.31,0,0,1-5.78-50.95c1.11-12.07,5-23.13,9.78-33.85,2.81-6.27,7.58-11.82,12.08-17.17q11.43-13.59,23.71-26.44c4-4.13,9.32-6.95,13.23-11.13a71.67,71.67,0,0,1,25.1-17c17.17-7.2,33.91-15.5,51.31-22.07,17.07-6.45,34.73-11.32,52.14-16.86,11.41-3.63,22.64-8,34.27-10.68,16.18-3.72,32.66-6.09,49-9.17,33.44-6.31,67.3-6.12,101.11-6.87,11.72-.25,23.45-1.49,35.14-1.19,22.94.6,45.91,1.3,68.77,3.2,21.21,1.76,42.37,4.62,63.4,7.94,19.2,3,38.21,7.32,57.3,11.06,7.11,2.26,14.17,4.72,21.35,6.74,10.15,2.85,20.39,5.38,30.59,8.05,18.89,6.44,37.83,12.8,56.66,19.42,2.8,1,5.12,3.28,7.73,4.87,9.89,6,20.58,11.05,29.55,18.23,16.11,12.92,33,25.11,46,41.53a104.07,104.07,0,0,1,7.45,11c11.39,19,13.7,40.23,14.08,61.74.16,8.87-1,17.73-4.8,26a52.22,52.22,0,0,0-1.93,6.24c5.51-1.23,10.27-2.32,15-3.35,13.26-2.84,26.56-5.49,39.77-8.54,14.65-3.38,29.15-7.37,43.83-10.59,10.83-2.37,21.8-4.22,32.78-5.74a34.76,34.76,0,0,1,19.16,2.84c10.45,4.68,16,14.31,14.82,25.93-1.21,5-2.42,10-3.7,15.3,3.67-1.14,2.55,2.42,3.69,3.94.53,6.37,1.38,12.73,1.47,19.11.07,4.37-1.2,8.74-1.3,13.13,0,2.58.67,4.84-1,7.48-2.23,3.54-4.9,5.67-9,6.34a36.65,36.65,0,0,0-4.57,1.32c-.66,2.67,0,4.37,2.22,6.1,7,5.58,11.17,12.34,12.73,21.87,1.66,10.11,1.35,20.07,1.71,30.1.17,4.74-.63,9.52-1,14.75a35.15,35.15,0,0,1,3.73,1.21c7.42,3.24,15,6.27,22.17,9.93a13.49,13.49,0,0,1,7.65,11.51,24.26,24.26,0,0,0,.87,3.8v21.48a15,15,0,0,0-1.25,2.59c-1.89,7.31-6.82,11.75-13.19,15.42-6.59,3.8-13.68,5.43-21,6.77-11.62,2.14-23.16,4.91-35.12,4.27q-3.87-.2-7.76-.36c-18-.81-35.17-4.8-50.81-14-7.73-4.56-14.06-10.56-15.7-20-.54-3.1-.59-6.28-.9-9.84-10.88,1.58-21.56,3.56-32.33,4.62-18.29,1.8-36.5,3.83-54.69,6.63-18.47,2.85-37.3,3.56-56,4.64A77.11,77.11,0,0,0,846.68,517c-9.71,5.15-20.37,8.64-30.81,12.29-5.78,2-12,2.62-18,4.25C778.81,538.82,760.58,547,740.55,549c-10,1-19.71,4.45-29.68,5.82-13.31,1.81-26.73,2.81-40.12,3.91-10.42.86-20.87,1.34-31.3,2a31,31,0,0,0-4.24-.55q-33.68.31-67.34.72A21.06,21.06,0,0,0,564.38,561.52Zm343.35-80.59,7.2-3.26a13.77,13.77,0,0,0-2.3-.4c-1.92.23-3.85.5-5.77.76a13.9,13.9,0,0,0-3.63.53c-9.63,4.1-19.34,8.06-28.81,12.53-12.52,5.91-25.14,11.45-38.68,14.62-2.65.62-5.3,1.25-7.88,2.09-35.26,11.5-71.05,21-107.69,26.78-17.89,2.84-36,4.9-54,6.07-23.28,1.51-46.63,2.07-70,2.48-16,.28-32.1-.56-48.15-.6-18,0-36,.78-54,.25-19.86-.59-39.68-2.22-59.51-3.54-6.52-.43-13.13-.72-19.47-2.1-10.71-2.32-21.21-5.58-31.85-8.21-12.69-3.14-25.45-6-38.15-9.06-6.67-1.64-13.25-3.62-19.89-5.37-2.26-.6-4.6-.89-6.88-1.46a254,254,0,0,1-69.49-28.86c-14.66-8.81-29.08-18.27-41.28-30.55-6.24-6.29-13-12.14-18.52-19-8.89-11.11-15.15-23.89-20.75-36.95-.69-1.62-1.17-3.34-1.75-5l-1,.3c.54,2.45,1.11,4.89,1.62,7.34,3.28,16,10.66,30.14,20.26,43.13,3.43,4.64,7.79,8.59,11.62,12.95,2.1,2.4,3.63,5.42,6,7.42,6.53,5.42,13.68,10.12,20.06,15.7,12.26,10.72,26.82,17.61,41,24.94,9.8,5.06,20.63,8.07,30.74,12.56A296.78,296.78,0,0,0,371,539.38c13.52,2.14,27,4.91,40.23,8.34,16.79,4.33,33.66,7.62,51,7.85,39.77.52,79.53,1.15,119.29,1.33,17.65.09,35.31-.82,53-1.22,24.33-.57,48.68-1.22,72.75-5,17.79-2.79,35.52-6.18,53-10.3s34.87-9.79,52.4-14.31,33.48-13.29,49.83-20.79c7.91-3.63,15.09-8.81,22.77-13C892.67,488.3,900.25,484.7,907.73,480.93ZM671.29,490a37.79,37.79,0,0,1,4.28-.88c7-.63,14-.93,21-1.78,22.74-2.79,45.45-5.78,68.17-8.65,8.19-1,16.39-1.91,24.58-3,4-.53,8-1.63,12-1.94,9-.7,18.17-.75,27.19-1.67,11.52-1.17,23-3.11,34.45-4.39,23.64-2.63,47.31-4.9,70.94-7.57,23-2.61,46-5.44,68.95-8.32,18.2-2.29,36.37-4.8,54.55-7.22,9.76-1.29,19.5-2.91,29.3-3.82,11.07-1,22.15-1.71,32.62-5.87,1.43-.57,3.49-1.27,3.9-2.41,2.64-7.34,6.85-14.55,4.42-22.75-1.53-5.18-4.35-9.72-10.08-12.55-.4,3.28-.7,6.06-1.09,8.83a14.4,14.4,0,0,1-1,4.61c-3.4,6.38-8.56,10.68-16,10.92-6.61.21-13.25-.55-19.87-.47-3.66,0-4.16-1.8-3.9-4.61a36,36,0,0,0,.55-3.64c-.08-5.69-.27-11.37-.44-17.4-9.9,2.5-18.88,5.13-28,7-16.65,3.44-33.4,6.42-50.09,9.64-24.15,4.65-48.32,9.17-72.41,14.1-21,4.29-41.84,9.25-62.82,13.55-15.44,3.16-31,5.48-46.48,8.69-10.83,2.25-21.39,5.89-32.25,8-14.51,2.79-29.28,4.25-43.79,7.06-24.18,4.68-48.25,10-72.36,15-1.72.36-3.44.69-5.62,1.13.82,1.55,1.31,2.5,1.81,3.45l6,10.26ZM249.39,246c-1,5-2.54,9.93-3,15-.85,9.33,2.11,18.11,5.54,26.58,4,10,9.16,19.41,18,26.23,4.55,3.52,9,7.18,13.63,10.58,9.55,7,18.68,14.71,29.88,19.07,8.48,3.3,17.2,6,25.7,9.3,7.1,2.75,13.87,6.48,21.09,8.82,14,4.55,28.2,8.8,42.48,12.49,13.47,3.47,27.09,6.44,40.77,8.92,9.56,1.74,19.32,2.49,29,3.31,24.34,2.06,48.68,4.29,73.06,5.68,14.13.81,28.35.11,42.52.08,2.84,0,6.05.79,6.85-3.43.1-.52,1.06-1,1.72-1.26,2.53-1,5-2.24,7.65-2.71,11-2,22.06-3.86,33.15-5.43,7-1,8.94-2.35,12.39,6,.08.19.36.31.63.53a60.34,60.34,0,0,0,6.49-.84q17.26-4,34.48-8.26c8.84-2.19,17.56-4.88,26.46-6.75,16.5-3.46,33.08-6.53,49.64-9.68,14.33-2.73,29-3.8,42.4-10.49,6.82-3.41,14.05-6,20.79-9.55,4.55-2.4,8.28-6.43,12.91-8.61,9.3-4.4,16.93-11.05,24.93-17.2a71.08,71.08,0,0,0,9.34-9.42c7.67-8.68,10.71-19.69,13.89-30.34a42.23,42.23,0,0,0-.85-25.53,46.74,46.74,0,0,0-4-8.32c-3.79-6.59-7-13.67-11.78-19.5a92.91,92.91,0,0,0-28.23-23.63c-10.75-5.7-20.2-13.69-32.68-16.56-10-2.3-19.36-7.25-29.06-10.88-8.51-3.19-16.91-6.83-25.66-9.12-16-4.19-32.1-8.14-48.35-11-20.15-3.6-40.48-6.11-60.76-8.94-11.44-1.6-22.9-3.07-34.39-4.27-5.64-.58-11.35-.54-17-.57q-37.79-.16-75.58-.15c-4.34,0-8.68.66-13.39,1.05.84,2.7,1.39,4.58,2,6.44,2.71,8.27,2.89,8.48,11.69,8.34,22.68-.34,45.35-.91,68-1.08,8.36-.06,16.74.71,25.1,1.18,12.18.69,24.43.88,36.52,2.33,17.49,2.09,34.92,4.85,52.28,7.84,11.4,2,22.64,4.9,34,7.34,32.48,7,63.54,17.63,92.79,33.72,15.3,8.41,26.06,20.84,35.73,34.69a17.45,17.45,0,0,1,2.29,5c1.46,5.07,2.33,10.35,4.14,15.29,4.56,12.5,0,22.73-7.67,32.11-4.2,5.14-9,9.81-13.6,14.59a39.57,39.57,0,0,1-6.82,6.21c-14.19,8.93-28,18.59-43.64,24.95-6.29,2.56-12.7,4.78-19,7.35-8.16,3.33-16,8.13-24.42,10.07-26,6-52.05,12.16-78.72,14.84-13.85,1.39-27.64,3.29-41.46,4.92-19.49,2.29-39,4.58-58.67,3.89-27-.95-54-2.31-81-3.84-13.78-.78-27.65-1.49-41.23-3.69-19.32-3.14-39-5-57.62-11.54-4.3-1.52-8.59-3.07-12.95-4.41-20.85-6.4-42-11.86-61.29-22.61-2.35-1.31-5-2-7.46-3.22a92.1,92.1,0,0,1-9.37-5.11c-8.46-5.51-16.81-11.17-25.16-16.83A8,8,0,0,1,282,303.3q-5.6-10-11-20c-4.1-7.68-8.09-15.72-6.49-24.59,3.52-19.41,12.63-35.57,29.83-46.35,6.9-4.32,13.71-8.82,20.75-12.9s14.23-8.52,21.83-11.62c9.2-3.74,19.1-5.74,28.35-9.39,15.14-6,31.07-8.88,46.76-12.6,14.38-3.4,29.11-5.34,43.69-7.89,6.37-1.11,12.77-2.14,19.6-3.28-2.6-3.92-4.85-7.4-7.21-10.8a2.56,2.56,0,0,0-1.89-.87,63.23,63.23,0,0,0-9.55.61c-12,2.21-23.91,4.87-35.93,7-28,4.89-54.85,14-81.62,23.27a18.17,18.17,0,0,1-2.89.5l-.86-2.16c2.82-1.48,5.5-3.4,8.49-4.37,16.5-5.36,33-10.85,49.66-15.56,9.8-2.77,20-4.13,30-6.2,13-2.7,25.92-6,39-8.07,11.67-1.85,23.52-2.58,35.32-3.48,13.51-1.05,27-2.14,40.58-2.49,19.74-.52,39.51-.63,59.26-.47,9.35.07,18.73.91,28,1.89s18.73,2.56,28.08,4c21.56,3.23,43.28,5.67,64.6,10,20.59,4.2,41.35,8.16,61.11,15.79,18.68,7.21,38.69,11.12,55.54,22.82,8.66,6,18.81,9.38,26.86,16.79,9.48,8.72,18.83,17,25.12,28.68,7.11,13.2,11.56,26.57,9.54,41.63a29.67,29.67,0,0,1-1.64,6c-1.57,4.4-3.49,8.69-4.9,13.14-2.71,8.54-6.63,16.11-14.24,21.44-8.77,6.15-17.31,12.64-26.06,18.83-3.91,2.77-8,5.25-12.17,7.69-2.71,1.61-5.61,2.9-8.42,4.34L819,349.77a5.49,5.49,0,0,0,3.73.22c3.22-.73,6.41-1.62,9.64-2.25,21.66-4.21,43.37-8.18,65-12.63,15-3.08,29.75-7,44.7-10.11,4-.84,6.24-2.66,7.85-6.2,5.4-11.89,10.79-23.8,13.68-36.6,1.11-4.89,2.23-9.95,2.13-14.9-.15-6.61-1.69-13.17-2.25-19.79-.76-9-5.24-16.37-10-23.45-12.7-19-31.56-31.9-48.46-46.49-15.64-13.5-34.51-22.87-54.11-30-12.25-4.43-24.76-8.22-37.27-11.88s-25.69-6.19-38.13-10.47a267.63,267.63,0,0,0-49.45-12.11c-15.83-2.26-31.5-5.68-47.36-7.71-18-2.31-36-4-54.07-5.29-17.35-1.22-34.76-2-52.14-2.1-16.29-.12-32.6.62-48.88,1.38-20.33.95-40.66,2-60.95,3.59-14.19,1.11-28.4,2.68-42.43,5.06A382.22,382.22,0,0,0,381.05,117c-16.35,4.59-32.45,10.07-48.65,15.2-13.6,4.31-27.46,8-40.72,13.19-17.43,6.83-34.4,14.81-51.51,22.44a30,30,0,0,0-7.74,5c-6.09,5.52-12.19,11.09-17.77,17.1-6.79,7.31-12.65,15.5-19.62,22.61-16.64,17-24,38-27.76,60.78-.55,3.31-.88,7.16.27,10.15,3.1,8,7.23,15.57,10.62,23.45,3.59,8.34,7.62,16.67,14.3,22.67,12.44,11.15,25.44,21.74,38.78,31.82a127.1,127.1,0,0,0,23.15,13.46c16.08,7.46,32.24,14.92,48.87,21,15.24,5.57,31.13,9.35,46.75,13.86,1.76.51,3.66.57,5.45,1,10.41,2.54,20.81,5.09,31.2,7.73,8.47,2.15,16.85,4.76,25.4,6.54a194.48,194.48,0,0,0,21.53,3c6.25.6,12.59.35,18.85.92,14.34,1.32,28.63,3.3,43,4.3s28.63.89,42.94,1.64c31.79,1.68,63.57,3.69,95.39,1,10.4-.87,20.76-2.11,31.13-3.25,4.88-.53,9.77-1.05,14.61-1.86,2.51-.43,4.87-1.82,7.38-2.21,18.15-2.84,36.4-5.1,54.46-8.41,14.89-2.73,29.63-6.44,44.33-10.11,12.18-3,24.17-6.86,36.34-10,7.4-1.89,15-3,22.48-4.66.9-.2,1.55-1.5,2.32-2.29a17.4,17.4,0,0,0-2.83-1.2,6.24,6.24,0,0,0-2.19.25c-14.13,2.21-28.24,4.67-42.42,6.58-16.14,2.18-32.35,3.82-48.52,5.8-7.09.87-14.12,2.39-21.22,2.94-13.84,1.07-27.73,1.62-41.58,2.49-5.15.32-10.29,1.32-15.42,1.28a48.13,48.13,0,0,0-17,2.73A106.6,106.6,0,0,1,639.92,418c-7.26,1.41-14.67,2.08-21.88,3.66-3.76.82-6.49.41-8.62-2.79-.95-1.43-1.85-2.89-2.79-4.33-3.75-5.78-7.45-11.59-11.3-17.3a3.85,3.85,0,0,0-2.67-1.48c-9.86-.24-19.73-.43-29.6-.46-8.26,0-16.54.43-24.79.21-6.65-.17-13.27-1.07-19.9-1.59-11.68-.92-23.36-1.78-35-2.69-18.95-1.46-37.85-3.27-56.36-7.84-14.58-3.61-29.11-7.42-43.65-11.17-6.09-1.57-12.19-3.08-18.22-4.87C349.61,362.78,335,355.74,320,350.08,306.4,345,294.78,337.3,283.3,329c-5.08-3.68-10.62-6.91-15-11.27a87.47,87.47,0,0,1-24.17-42.54,49.61,49.61,0,0,1,3-32.07Zm3,235.53c3.61,2.24,7.11,4.67,10.86,6.64,1.83,1,4.11,1.07,6.18,1.57,9.79,4,19.47,8.3,29.4,11.91,11,4,22.06,7.87,33.35,10.85,20.48,5.39,41.15,10.09,61.74,15.06,7.41,1.78,14.76,4,22.28,5.12,10.42,1.53,20.95,2.46,31.46,3.18,19.94,1.35,39.9,2.72,59.87,3.41,13.06.45,26.17-.61,39.26-.43,17.4.24,34.8,1,52.2,1.56,3.08.09,6.17.14,9.24-.06,15-1,30-2.22,45-3.18,9.82-.63,19.67-.89,29.49-1.49,3.31-.2,6.58-.94,9.87-1.44,15.72-2.38,31.65-3.84,47.1-7.36,24-5.48,48.27-9.95,71.56-18.36,9.95-3.59,20.44-5.65,30.42-9.18,12.86-4.55,25.47-9.85,38.15-14.91a18.83,18.83,0,0,0,3.53-2.46l-.57-1.2c-1.08.19-2.17.34-3.25.57-4,.83-7.91,2-11.92,2.48-14.2,1.75-28.43,3.22-42.65,4.88-13.59,1.59-27.15,3.47-40.77,4.85-10.8,1.1-21.69,1.32-32.48,2.47-17.66,1.89-35.28,4.09-52.88,6.41C690,503.62,681,502.84,672,506c-13.81,4.78-28.36,7.4-42.62,10.87-2.86.7-5.33,0-7-2.68-1.57-2.5-3.39-4.86-4.83-7.42-1-1.74-1.93-2.26-4.06-2-11.16,1.12-22.34,2.4-33.54,2.78-12.93.45-25.9,0-38.85,0-4.31,0-8.64.34-12.94.1-10-.55-19.93-1.41-29.89-2.06-4.8-.32-9.64-.24-14.42-.71-9.57-.94-19.09-2.7-28.68-3.11-16.39-.69-32.22-4.51-48.12-7.85-11.79-2.48-23.41-5.83-35-9.17-13.95-4-27.91-8.13-41.64-12.87-8.81-3-17.05-7.68-25.82-10.85-7.61-2.76-14.92-5.84-21.37-10.75-10.76-8.19-22.57-14.91-32.32-24.51C238,413,229.43,398.49,229.28,379.85a4.78,4.78,0,0,0-2.25-3.26c-8.62-5-17.44-9.48-24.79-16.62-7.79-7.57-16.22-14.45-22.2-23.69-.22-.34-.79-.44-1.39-.76-.53.84-1,1.55-1.41,2.24-4.72,7.12-6.7,15.28-8.62,23.41a47.33,47.33,0,0,0-.13,23.41c9.12,34.63,30.54,60.21,59.15,80.47C235.74,470.78,244.15,476.06,252.42,481.55Zm255.87-325.2c-17.15,1.52-31.28,2-45.15,4.18-20.3,3.19-40.41,7.59-60.6,11.48-18.68,3.6-36.58,9.78-54.25,16.62-6.61,2.56-13.08,5.5-19.55,8.42-4.71,2.13-9.57,4.12-13.92,6.87-9.06,5.73-18,11.67-26.63,18.06-3.86,2.86-7.88,6.48-9.88,10.69-4.12,8.62-7,17.86-10.21,26.88a6.35,6.35,0,0,0-.09,3.64c2.28,8.43,3.82,17.13,9.61,24.22a34.32,34.32,0,0,1,4.71,7.94c2.1,4.75,5.72,7.94,9.83,10.77,2.11,1.46,4.15,3,6.26,4.48,8.39,5.8,16.47,11.88,26.16,15.8,12.54,5.08,24.37,11.81,37.48,15.68,12.72,3.77,25.61,6.94,38.06,11.8,8.42,3.3,17.54,5,26.48,6.74,13.69,2.62,27.43,5.22,41.27,6.75,15,1.67,30.22,2.24,45.35,3.06,19.35,1.05,38.72,1.92,58.08,2.76,26.65,1.17,53-1.64,79.39-5.11,18.76-2.47,37.53-4.88,56.25-7.58,8.55-1.23,17.09-2.68,25.47-4.73,11.94-2.93,23.79-6.28,35.54-9.89,4.94-1.52,9.46-4.36,14.3-6.28,8-3.16,16.59-5.24,24.16-9.24,18.45-9.76,37.8-18.47,50.82-36a6.84,6.84,0,0,1,1.07-1c10.81-9,15.53-25.05,11.26-38.25-.83-2.57-1.85-5.1-2.47-7.73-2.45-10.39-9.16-18-17-24.43s-16.89-11.86-25.48-17.6c-15.63-10.44-32.93-17.37-50.71-23C747.54,174,720.38,169,693.2,164.05c-23.35-4.23-46.7-8.14-70.51-8.33-20.74-.17-41.49-.44-62.24-.33C542,155.49,523.6,156.05,508.29,156.35ZM654,390.09c1.08,1.93,2.23,4,3.4,6.1,2.72,4.86,3,4.9,8.5,4,7.3-1.14,14.61-2.27,22-3.11,8.61-1,17.27-1.49,25.88-2.48,5.49-.63,10.91-1.83,16.38-2.63,11.56-1.68,23.15-3.14,34.7-4.91,11.08-1.7,22.08-3.92,33.18-5.44,8.9-1.22,17.92-1.58,26.85-2.6q29.76-3.4,59.47-7.11c14.43-1.78,28.82-3.95,43.27-5.53,17.58-1.93,34.9-5.8,52.84-5,9.47.4,19.07-1.92,28.59-3.11,6.11-.76,12.18-1.87,18.3-2.53,11.38-1.24,22.8-2.2,34.19-3.41,14.2-1.52,28.42-2.92,42.56-4.89,5.63-.78,11.12-2.84,16.57-4.62,1.1-.35,2.19-2,2.53-3.19,1.47-5.34,2.39-10.83,4-16.1,1.52-4.9,1.81-9.86-1.14-13.84-2.74-3.69-6.81-6.42-10.4-9.44-1.24-1-2.74-2.29-4.23-2.43-6.47-.63-13.12-1.9-19.46-1.06-12.3,1.63-24.49,4.26-36.62,7-9.23,2.07-18.22,5.23-27.45,7.32-10.18,2.31-20.55,3.78-30.78,5.92-16.86,3.52-33.68,7.22-50.49,11-19.82,4.44-39.55,9.36-59.44,13.47-21.22,4.39-42.6,8-63.88,12.1-20.07,3.87-40.11,7.92-60.15,12-6.27,1.26-12.46,2.86-18.73,4.1-10.52,2.07-21.15,3.6-31.59,6C693.37,380.13,674.05,385.12,654,390.09ZM827.33,422c-.09-.45-.17-.89-.26-1.34-6.65.82-13.36,1.28-19.92,2.53-10.49,2-20.91,4.28-30.87,8.48-12.67,5.34-26.13,7.94-39.68,10q-30.71,4.65-61.39,9.35c-10.24,1.55-20.43,3.87-30.73,4.47-24.28,1.43-48.61,2.08-72.92,3a477.17,477.17,0,0,1-88.95-5.26c-12.43-1.88-25.08-2.42-37.44-4.66-22.17-4-44.26-8.6-66.27-13.43-27.61-6.06-54.86-13.49-81.3-23.6-10.67-4.08-21.14-8.7-31.71-13.05a11.27,11.27,0,0,0-2-.44l-.69.72c4.51,5.94,8.8,12.07,13.64,17.73,2.09,2.44,5.29,3.94,8,5.79,8.78,5.89,17.27,12.2,27.29,16.14,7.09,2.79,13.51,7.35,20.67,9.86,18.23,6.38,36.6,12.38,55.12,17.87,11,3.25,22.24,5.49,33.47,7.71,11,2.17,22.09,4.29,33.23,5.42,12.13,1.22,24.38,1.17,36.56,1.88,10.83.63,21.62,1.85,32.46,2.27,19.61.76,39.24,1.37,58.87,1.53,12.44.1,25-.19,36.59-5.81a7.72,7.72,0,0,1,2.14-.53c7.92-1.23,15.81-2.64,23.75-3.59,5.12-.62,10.38-3,15.45.41.4.26,1.2,0,1.8-.14q18.51-3.61,37-7.27,26.1-5.13,52.2-10.25c3.62-.71,7.47-.79,10.85-2.08,6.88-2.63,13.37-6.29,20.28-8.82C798.84,440.91,813,431.4,827.33,422ZM169.73,297l-1.4.53c2.25,6.18-.21,13.56,5.37,18.9a5.9,5.9,0,0,1,.94,1.58c3.66,6.79,7.07,13.74,11,20.35,6.25,10.46,16.21,17.12,25.88,23.94,5.53,3.9,11.46,7.26,17.31,10.68,12.14,7.07,24.4,13.91,36.5,21,9.44,5.56,19.67,9,30,12.49,12.48,4.18,24.59,9.38,37.63,12,7.56,1.51,14.73,4.85,22.23,6.77q20.37,5.2,40.94,9.64c16.27,3.48,32.56,6.93,49,9.68,13.6,2.27,27.36,3.68,41.08,5.16,13.95,1.51,27.92,2.87,41.92,3.88,9.72.7,19.49,1,29.23.93,15.79-.17,31.59-.58,47.36-1.35s31.48-2,47.2-3.27c7.37-.62,14.68-2,22-3,9.63-1.41,19.28-2.74,28.87-4.37,10-1.7,19.9-3.61,29.8-5.63,10.14-2.07,20.26-4.21,30.32-6.63,8.75-2.1,17.32-5,26.12-6.87a278.52,278.52,0,0,0,63.48-21.92c.67-.33,1.29-.74,1.93-1.09,4.37-2.37,8.67-4.88,13.14-7,3.21-1.55,6.69-2.55,10-4a13.32,13.32,0,0,0,2.83-2.26c-.18-.5-.37-1-.56-1.49-8,1.62-16.68,1.75-23.68,5.28-7.33,3.7-14.35,7.93-22.32,10.12-14.14,3.89-28.33,7.55-42.5,11.32-10.84,2.89-21.58,6.23-32.54,8.58s-22.39,3.73-33.58,5.66q-29.07,5-58.1,10.22c-18.54,3.31-37.29,3.71-56,4.05-10.84.2-21.71-.34-32.56-.66-17.52-.51-35-1-52.56-1.7-12.82-.53-25.65-1.33-38.45-2.23-12.12-.86-23.89-3.92-36.29-3.63-18.66.42-37.09-2.92-55.19-7.7-19.91-5.26-39.86-10.34-59.77-15.56-6.3-1.65-12.62-3.29-18.8-5.32-5.48-1.8-10.72-4.33-16.18-6.18-4.66-1.58-9.78-2.05-14.2-4.08-12.84-5.91-25.62-12-38.08-18.66a291.58,291.58,0,0,1-55.54-38.6,49.76,49.76,0,0,1-12.37-17.25C177.59,311.68,173.54,304.39,169.73,297ZM235,382.79c-.51,5-.25,9.32,2.33,13.49,2.2,3.54,3.61,7.57,5.68,11.2a79.8,79.8,0,0,0,6.31,9.46,86.46,86.46,0,0,0,21.22,19.72c9.69,6.32,18.37,14.27,29.34,18.53,8.49,3.29,17.19,6,25.68,9.33,7.11,2.75,13.87,6.47,21.1,8.81,9.23,3,18.82,4.89,28.17,7.56,5.44,1.54,10.64,3.91,16.07,5.46,4.6,1.32,9.4,2,14.1,2.95,11.08,2.33,22.06,5.64,33.26,6.85,26.36,2.85,52.81,4.93,79.26,6.82,10.43.75,21,.22,31.43.2,14.05,0,28.11.05,42.16-.2,7.56-.13,15.11-.85,22.41-1.29l-6-13.94c-13.83.44-27.77,1.57-41.67,1.16-26.5-.76-53-2.23-79.48-3.76-13.77-.79-27.63-1.49-41.22-3.69-19.31-3.13-39-4.93-57.6-11.52-4.3-1.52-8.61-3-13-4.41-14-4.49-28-8.61-41.87-13.5-9.47-3.35-18.58-7.72-27.81-11.73a24.36,24.36,0,0,1-4-2.66c-1.93-1.32-3.7-3-5.81-3.92a75.61,75.61,0,0,1-22.93-15.38c-6.38-6.08-13.47-11.62-15.24-21.07a14.69,14.69,0,0,0-1.6-3.73,3.69,3.69,0,0,0-1.32-1.68C247.85,388.85,241.63,385.94,235,382.79ZM1030.34,492l-.72,1.2c2.44,3.27,4.3,7.26,7.41,9.66,8.64,6.68,18.3,11.81,29.24,13.52,8.63,1.35,17.43,1.55,26.09,2.74,18.05,2.49,35.69,1.28,52.77-5.24,5.49-2.09,11.23-4.16,13.95-10.11,1.48-3.24,2.77-6.58,4-9.93,2.26-6,.2-16.1-5.1-19-8-4.29-16.57-7.4-25-10.86a2.93,2.93,0,0,0-2.62,1.13c-3.07,6.63-8.79,10.55-14.62,14.29a9.11,9.11,0,0,0-4.31,6.83,6.29,6.29,0,0,1-3.25,4.24,57,57,0,0,1-13.18,3.5c-6,.67-12.51.51-15.92-5.27-2.14-3.62-4.24-3.49-7.39-3-11.32,1.71-22.66,3.3-34,5C1035.28,491,1032.82,491.54,1030.34,492ZM888.8,469.36l-.09-.69c-2.67.4-5.33.9-8,1.19-20.12,2.12-40.27,4.06-60.37,6.35-26.48,3-52.93,6.35-79.41,9.44-15.18,1.77-30.38,3.35-45.58,5-6.26.68-12.53,1.25-18.78,2-.88.1-2.28.6-2.4,1.14a3.4,3.4,0,0,0,.86,2.85,9.3,9.3,0,0,0,4.15,2,55.91,55.91,0,0,0,8.49.59c27,.22,53.54-5,80.36-7,12.3-.92,24.49-3.09,36.74-4.56,28.19-3.39,56.39-6.6,84.56-10.08,10.9-1.35,21.7-3.48,32.59-4.82,17-2.09,34.08-3.72,51.1-5.7,21.2-2.47,42.37-5.19,63.57-7.64,15.94-1.84,31.91-3.36,47.85-5.16,9.18-1,18.44-1.82,27.45-3.72,4-.85,7.75-3.94,11.24-6.52.87-.64.69-3.39.17-4.88-.21-.57-2.79-.76-4.12-.43-5.12,1.3-10.09,3.41-15.27,4.21-6.89,1.07-14,.95-20.9,1.79-12,1.45-24,3.23-35.93,4.9-16,2.24-32,4.73-48,6.72-24.85,3.08-49.73,5.8-74.6,8.71C912.57,466.43,900.69,467.92,888.8,469.36ZM912,379.7l.07.52c8.73-.63,17.5-.91,26.18-2,10-1.21,19.89-3.28,29.88-4.64,19.54-2.66,39.09-5.29,58.68-7.57,18.5-2.15,37.05-3.84,55.59-5.69,3.43-.35,6.93-.2,10.32-.77,7.65-1.29,15.31-2.65,22.84-4.48,2.84-.69,5.47-2.59,7.93-4.32.69-.49,1-3.06.5-3.4a5.32,5.32,0,0,0-4-.81c-6.51,1.68-12.85,4.39-19.45,5.3-14.38,2-28.87,3.18-43.33,4.55-31.12,3-62.12,7.08-93.31,9.49-14.11,1.09-28.12,3.35-42.2,4.92-11.28,1.26-22.61,2.11-33.88,3.49-7.33.89-14.55,2.64-21.88,3.58-11.59,1.49-23.25,2.55-34.86,3.95-10.27,1.23-20.52,2.63-30.78,4-21.51,2.93-43,6-64.54,8.86-16.26,2.18-32.55,4.15-48.81,6.33-7.34,1-14.65,2.18-21.93,3.5-1,.18-1.7,1.65-2.55,2.53,1.05.42,2.14,1.27,3.15,1.2,9.45-.68,18.88-1.67,28.34-2.28,12.31-.81,24.65-1.14,36.94-2.1,5.71-.45,11.32-2.13,17-2.9,24-3.21,48-6.22,71.94-9.42,15.78-2.1,31.53-4.51,47.32-6.54,9.41-1.21,18.89-1.86,28.32-2.94C901.08,381.5,906.55,380.52,912,379.7Zm-43.18,31.47c2-.13,3.94-.16,5.89-.41,14.08-1.78,28.12-3.88,42.23-5.37,19.26-2,38.61-3.23,57.84-5.51,25.44-3,50.77-6.9,76.19-10.08,11.38-1.42,22.88-1.86,34.29-3,9.68-1,19.45-1.8,28.92-3.88,7.52-1.64,13.94-5.88,15.54-14.47.19-1-.45-2.22-.71-3.34-1,.3-2,.52-2.92.91-2.47,1-4.83,2.58-7.4,3.14-6.14,1.35-12.37,2.3-18.58,3.34-9.61,1.61-19.2,3.43-28.86,4.69-19.69,2.57-39.54,4.11-59.11,7.38a805.2,805.2,0,0,1-89,10c-11.15.61-22.23,3.12-33.24,5.28-11.74,2.3-23.35,5.22-35,7.84-6.23,1.4-12.5,2.66-18.7,4.2-.83.21-1.33,1.72-2,2.63,1.06.34,2.35,1.25,3.17.93C847.57,411.43,858.38,412.54,868.85,411.17Zm5.48,94.12c8.29-.79,15.87-1.6,23.48-2.22,9.21-.75,18.49-.95,27.66-2.07,12.72-1.56,25.34-3.83,38-5.62,4.14-.59,8.38-.5,12.55-.91,10.56-1.05,21.13-2,31.65-3.35,17.1-2.23,34.17-4.76,51.25-7.2,4.88-.7,9.71-1.81,14.62-2.25,9.82-.89,19.67-1.77,29.53-2.06,10.48-.31,16.66-7.79,24-13.42.61-.47.28-2.16.39-3.29a14.87,14.87,0,0,0-2.93.37c-2.55.83-5,2.17-7.58,2.64-5.21.95-10.5,1.46-15.76,2.13-12.72,1.62-25.43,3.42-38.18,4.76-12.14,1.28-24.37,1.76-36.5,3.15-20.58,2.36-41.12,5.1-61.66,7.8-10.88,1.43-21.7,3.28-32.59,4.64-11.5,1.43-23.24,1.61-34.51,4-8.25,1.78-15.92,6.28-23.8,9.68a2.39,2.39,0,0,0-.92,2.12C873.18,504.82,874.21,505.2,874.33,505.29ZM861,401.06c.21.4.41.81.62,1.22a15,15,0,0,0,3.21,0c17.07-4,34.21-7.37,51.71-9.06s34.75-4.14,52.11-6.35c18.07-2.29,36.13-4.71,54.2-7,20.16-2.61,40.35-5,60.48-7.86q17.55-2.47,34.93-6.1c8-1.67,11.08-6.58,10.43-14.83-.1-1.32-.25-2.63-.37-3.95l-1.11-.33c-.76,6.13-5.3,8.62-10,10.6-3.35,1.44-7.08,2.06-10.7,2.8-14.22,2.92-28.81,2.72-43.14,5.71-15.88,3.32-32.28,4.16-48.45,6.12-15.43,1.86-30.86,3.81-46.29,5.66-13.95,1.68-27.9,3.4-41.87,4.88-13.13,1.39-26.29,2.45-39.42,3.77a8.68,8.68,0,0,0-3.91,1.59c-2,1.45-3.65,3.6-5.83,4.71-3.94,2-8.22,3.36-12.25,5.22C863.77,398.55,862.45,400,861,401.06Zm44.45,85.54c.09.31.19.61.29.91a32.36,32.36,0,0,0,3.94,0c9.16-1.08,18.32-2.29,27.49-3.33,5.38-.61,10.83-.7,16.18-1.51,14.6-2.21,29.13-4.94,43.75-7,9.14-1.26,18.43-1.4,27.62-2.39,16.28-1.76,32.53-3.89,48.81-5.64,13.23-1.42,26.52-2.31,39.73-3.84,7.36-.85,16.38-6,17.22-15.68a46.44,46.44,0,0,0-.58-9.17c-.11-.93-.9-1.77-1.37-2.66a24.79,24.79,0,0,0-1.52,2.82,6.5,6.5,0,0,0-.06,1.83c-.32,5-3.89,10.57-7.59,11.59a46.22,46.22,0,0,1-4.74.68c-27.17,4.36-54.4,8.45-81.9,9.89-19.25,1-38.17,3.84-57.08,7.42a262.33,262.33,0,0,1-39.92,4.86C923.91,475.78,915.49,482.85,905.44,486.6Zm56.22-81.38c-2.82.16-5.37.16-7.87.48-6.24.81-12.45,2.41-18.69,2.53-21,.43-41.54,5.17-62.4,6.92-.91.08-2.26.35-2.61,1C866.24,423,859.88,427.29,854,432c-2.58,2.06-5.19,4.07-8.35,6.54a14.26,14.26,0,0,0,2.08,0c19.88-4.07,39.8-8,59.64-12.27,16.45-3.55,32.8-7.59,49.23-11.23,5.28-1.17,5.39-1,5.12-6.38C961.62,407.71,961.66,406.76,961.66,405.22ZM670.15,500.48c-3.42-5.13-6.81-9.38-9.29-14.11-4.43-8.45-4.26-9-13.7-7.58-11,1.66-22,4.14-33,6.24-3.06.58-3.61,1.92-1.87,4.57,4.19,6.34,8.2,12.79,12.32,19.17,2,3,4.45,4.05,8.18,2.92,11.2-3.39,22.5-6.45,33.75-9.69A30.33,30.33,0,0,0,670.15,500.48Zm427.85,32c14.38.49,28.21-2,42.15-5.29,12-2.87,20.06-9.35,24.95-20.25.51-1.15-.11-2.82-.21-4.24a18.2,18.2,0,0,0-3.14,2.37c-2.7,3.12-4.63,7.55-8,9.33a62.89,62.89,0,0,1-19.42,6.81c-9.17,1.38-18.6,1.2-27.92,1.42-16.82.41-33.58-.12-49.84-5.19-10.62-3.32-20.38-7.95-26-18.4a5.48,5.48,0,0,0-1.49-2.08,14.64,14.64,0,0,0-3.14-1.13c-.12,1-.57,2.1-.31,3A35.27,35.27,0,0,0,1042,519.53c9.2,5.56,19.72,7.78,30,10.12C1080.38,531.59,1089.29,531.59,1098,532.45ZM656.65,403.57a32.7,32.7,0,0,1-3.5-4.19c-2.65-4.71-5-9.59-7.79-14.21-.71-1.17-2.77-2.43-4-2.24-13.1,2.12-26.14,4.58-39.22,6.81-3,.52-3.52,2-2.16,4.34,3.38,5.73,6.8,11.44,10.45,17a4.42,4.42,0,0,0,3.67,1.3c6.92-1.05,13.8-2.38,20.7-3.59,5.69-1,11.4-1.84,17.06-3C653.5,405.48,655,404.39,656.65,403.57Zm433.7,15.19c5.22-1.18,10.68-1.79,15.59-3.75,2.53-1,4.68-4.17,5.93-6.85,1-2.26.59-5.23.65-7.89.07-3.29,0-6.58-.07-9.86,0-2.13-1.13-3.16-3.32-2.81q-13.29,2.13-26.57,4.26c-2.3.37-3,1.8-2.82,3.95.29,4.29.62,8.58.74,12.88C1080.73,417.89,1080.67,417.89,1090.35,418.76Zm-315.21,35.6a19.35,19.35,0,0,0,3.64-.32c8.37-2.55,17.25-2.7,25.44-6.66,5.49-2.65,12.16-2.81,18.23-4.35,5.77-1.47,12.12-1,17.2-4.85,5.58-4.28,11.29-8.39,16.67-12.9,3.1-2.6,5.65-5.84,8.45-8.79-9.11.68-17.62,1.94-26.11,3.31a9.7,9.7,0,0,0-3.29,1.51c-10.13,6.33-20,13.16-30.41,18.93C795.53,445.45,785.47,449.52,775.14,454.36Zm288-60.05-.63-2.08q-8.62,1.41-17.23,2.84c-6.44,1.08-12.84,2.5-19.32,3.22-18,2-36,3.68-54.07,5.54-2.53.26-5,4.58-3.84,7.48.36.89,3,1.44,4.49,1.2,11.15-1.86,22.25-4,33.38-6,3.64-.65,7.33-1,10.95-1.73,12.94-2.52,25.87-5.05,38.76-7.75C1058.24,396.53,1060.67,395.25,1063.17,394.31ZM969.72,268.49c-.5,1.67-1.12,3.31-1.47,5-1.31,6.34-1.86,12.93-4,19-3.25,9.41-7.51,18.47-11.35,27.68-1.1,2.64-.41,3.86,2.39,3.64a25.36,25.36,0,0,0,6.15-1.25,3.69,3.69,0,0,0,2-2.24c.92-3.38,1.11-7,2.46-10.21C971.58,296.7,970.77,282.7,969.72,268.49Zm-355.88,148,.42,1.19a7.63,7.63,0,0,0,2.12.32c12.16-1.92,24.33-3.85,36.47-5.9,1-.18,2-1.2,2.93-1.84-1.14-1-1.95-1.25-2.71-1.13-11.91,1.9-23.82,3.82-35.72,5.83A15.65,15.65,0,0,0,613.84,416.52ZM1107.9,484.7l-.64-1.09c-6.37.34-12.74.55-19.09,1.1-1.79.15-3.49,1.32-5.23,2a57.52,57.52,0,0,0,5.08,3,5.34,5.34,0,0,0,2.92.24c5-.81,9.9-1.63,14.79-2.71C1106.6,487,1107.19,485.57,1107.9,484.7Z" transform="translate(-4.56 -2.29)"/><path class="cls-1" d="M639.45,560.75c10.43-.65,20.88-1.13,31.3-2,13.39-1.1,26.81-2.1,40.12-3.91,10-1.37,19.69-4.79,29.68-5.82,20-2.06,38.26-10.21,57.35-15.45,5.93-1.63,12.19-2.24,18-4.25,10.44-3.65,21.1-7.14,30.81-12.29a77.11,77.11,0,0,1,32.49-8.72c18.7-1.08,37.53-1.79,56-4.64,18.19-2.8,36.4-4.83,54.69-6.63,10.77-1.06,21.45-3,32.33-4.62.31,3.56.36,6.74.9,9.84,1.64,9.42,8,15.42,15.7,20,15.64,9.2,32.81,13.19,50.81,14q3.89.16,7.76.36c12,.64,23.5-2.13,35.12-4.27,7.28-1.34,14.37-3,21-6.77,6.37-3.67,11.3-8.11,13.19-15.42a15,15,0,0,1,1.25-2.59v54.81H629.7Z" transform="translate(-4.56 -2.29)"/><path class="cls-2" d="M639.45,560.75l-9.75,1.62H570.4l-6-.85a21.06,21.06,0,0,1,3.49-.6q33.68-.4,67.34-.72A31,31,0,0,1,639.45,560.75Z" transform="translate(-4.56 -2.29)"/><path class="cls-3" d="M812,130.62c-10.2-2.67-20.44-5.2-30.59-8.05-7.18-2-14.24-4.48-21.35-6.74,10.82,2.71,21.69,5.24,32.43,8.22C799.13,125.88,805.54,128.4,812,130.62Z" transform="translate(-4.56 -2.29)"/><path class="cls-4" d="M1132.19,339.43c-1.14-1.52,0-5.08-3.69-3.94,1.28-5.27,2.49-10.29,3.7-15.3Q1132.2,329.81,1132.19,339.43Z" transform="translate(-4.56 -2.29)"/><path class="cls-5" d="M508.29,156.35c15.31-.3,33.74-.86,52.16-1,20.75-.11,41.5.16,62.24.33,23.81.19,47.16,4.1,70.51,8.33,27.18,4.93,54.34,9.93,80.71,18.29,17.78,5.65,35.08,12.58,50.71,23,8.59,5.74,17.51,11.1,25.48,17.6s14.54,14,17,24.43c.62,2.63,1.64,5.16,2.47,7.73,4.27,13.2-.45,29.22-11.26,38.25a6.84,6.84,0,0,0-1.07,1c-13,17.51-32.37,26.22-50.82,36-7.57,4-16.14,6.08-24.16,9.24-4.84,1.92-9.36,4.76-14.3,6.28-11.75,3.61-23.6,7-35.54,9.89-8.38,2.05-16.92,3.5-25.47,4.73-18.72,2.7-37.49,5.11-56.25,7.58-26.35,3.47-52.74,6.28-79.39,5.11-19.36-.84-38.73-1.71-58.08-2.76-15.13-.82-30.31-1.39-45.35-3.06-13.84-1.53-27.58-4.13-41.27-6.75-8.94-1.72-18.06-3.44-26.48-6.74-12.45-4.86-25.34-8-38.06-11.8-13.11-3.87-24.94-10.6-37.48-15.68-9.69-3.92-17.77-10-26.16-15.8-2.11-1.46-4.15-3-6.26-4.48-4.11-2.83-7.73-6-9.83-10.77a34.32,34.32,0,0,0-4.71-7.94c-5.79-7.09-7.33-15.79-9.61-24.22a6.35,6.35,0,0,1,.09-3.64c3.25-9,6.09-18.26,10.21-26.88,2-4.21,6-7.83,9.88-10.69,8.61-6.39,17.57-12.33,26.63-18.06,4.35-2.75,9.21-4.74,13.92-6.87,6.47-2.92,12.94-5.86,19.55-8.42,17.67-6.84,35.57-13,54.25-16.62,20.19-3.89,40.3-8.29,60.6-11.48C477,158.35,491.14,157.87,508.29,156.35ZM576.8,298.09a241,241,0,0,0,78.12-10.32A113.23,113.23,0,0,0,691.57,269a11.76,11.76,0,0,0,2.95-3.71c4.26-8.06,4.51-16.73,3.92-25.58-.26-3.91-2-6.86-4.2-10-4.39-6.14-10.87-9.27-17.21-12.4-22-10.86-45.27-18.18-69.66-19.91-23.08-1.63-46.32-1.12-69.49-1.15a155.73,155.73,0,0,0-59.93,12c-6.1,2.5-12.54,4.15-18.79,6.32-12.43,4.31-20.47,12.51-22.24,25.92a69.49,69.49,0,0,0-.56,11.8,22.29,22.29,0,0,0,10.34,18.2c5.61,3.71,11.79,6.62,17.85,9.6,12.66,6.22,26.27,9.5,40,12.36,2.16.45,4.43.36,6.61.76C531.74,297,552.54,298.09,576.8,298.09Z" transform="translate(-4.56 -2.29)"/><path class="cls-5" d="M247.12,243.11a49.61,49.61,0,0,0-3,32.07,87.47,87.47,0,0,0,24.17,42.54c4.42,4.36,10,7.59,15,11.27,11.48,8.31,23.1,16,36.69,21.09,15.05,5.66,29.62,12.7,45.11,17.31,6,1.79,12.13,3.3,18.22,4.87,14.54,3.75,29.07,7.56,43.65,11.17,18.51,4.57,37.41,6.38,56.36,7.84,11.68.91,23.36,1.77,35,2.69,6.63.52,13.25,1.42,19.9,1.59,8.25.22,16.53-.23,24.79-.21,9.87,0,19.74.22,29.6.46a3.85,3.85,0,0,1,2.67,1.48c3.85,5.71,7.55,11.52,11.3,17.3.94,1.44,1.84,2.9,2.79,4.33,2.13,3.2,4.86,3.61,8.62,2.79,7.21-1.58,14.62-2.25,21.88-3.66A106.6,106.6,0,0,0,655.63,414a48.13,48.13,0,0,1,17-2.73c5.13,0,10.27-1,15.42-1.28,13.85-.87,27.74-1.42,41.58-2.49,7.1-.55,14.13-2.07,21.22-2.94,16.17-2,32.38-3.62,48.52-5.8,14.18-1.91,28.29-4.37,42.42-6.58a6.24,6.24,0,0,1,2.19-.25,17.4,17.4,0,0,1,2.83,1.2c-.77.79-1.42,2.09-2.32,2.29C837,397,829.43,398.15,822,400c-12.17,3.11-24.16,6.93-36.34,10-14.7,3.67-29.44,7.38-44.33,10.11-18.06,3.31-36.31,5.57-54.46,8.41-2.51.39-4.87,1.78-7.38,2.21-4.84.81-9.73,1.33-14.61,1.86-10.37,1.14-20.73,2.38-31.13,3.25-31.82,2.66-63.6.65-95.39-1-14.31-.75-28.66-.65-42.94-1.64s-28.66-3-43-4.3c-6.26-.57-12.6-.32-18.85-.92a194.48,194.48,0,0,1-21.53-3c-8.55-1.78-16.93-4.39-25.4-6.54-10.39-2.64-20.79-5.19-31.2-7.73-1.79-.44-3.69-.5-5.45-1-15.62-4.51-31.51-8.29-46.75-13.86-16.63-6.08-32.79-13.54-48.87-21a127.1,127.1,0,0,1-23.15-13.46c-13.34-10.08-26.34-20.67-38.78-31.82-6.68-6-10.71-14.33-14.3-22.67-3.39-7.88-7.52-15.46-10.62-23.45-1.15-3-.82-6.84-.27-10.15C171,250.57,178.4,229.51,195,212.52c7-7.11,12.83-15.3,19.62-22.61,5.58-6,11.68-11.58,17.77-17.1a30,30,0,0,1,7.74-5c17.11-7.63,34.08-15.61,51.51-22.44,13.26-5.2,27.12-8.88,40.72-13.19,16.2-5.13,32.3-10.61,48.65-15.2a382.22,382.22,0,0,1,39.22-8.94c14-2.38,28.24-4,42.43-5.06,20.29-1.6,40.62-2.64,60.95-3.59,16.28-.76,32.59-1.5,48.88-1.38,17.38.13,34.79.88,52.14,2.1,18.06,1.26,36.11,3,54.07,5.29,15.86,2,31.53,5.45,47.36,7.71a267.63,267.63,0,0,1,49.45,12.11C788,129.54,801,132,813.68,135.73s25,7.45,37.27,11.88c19.6,7.09,38.47,16.46,54.11,30,16.9,14.59,35.76,27.52,48.46,46.49,4.74,7.08,9.22,14.49,10,23.45.56,6.62,2.1,13.18,2.25,19.79.1,4.95-1,10-2.13,14.9-2.89,12.8-8.28,24.71-13.68,36.6-1.61,3.54-3.8,5.36-7.85,6.2-15,3.09-29.74,7-44.7,10.11-21.61,4.45-43.32,8.42-65,12.63-3.23.63-6.42,1.52-9.64,2.25a5.49,5.49,0,0,1-3.73-.22l10.15-5.2c2.81-1.44,5.71-2.73,8.42-4.34,4.14-2.44,8.26-4.92,12.17-7.69,8.75-6.19,17.29-12.68,26.06-18.83,7.61-5.33,11.53-12.9,14.24-21.44,1.41-4.45,3.33-8.74,4.9-13.14a29.67,29.67,0,0,0,1.64-6c2-15.06-2.43-28.43-9.54-41.63-6.29-11.67-15.64-20-25.12-28.68-8.05-7.41-18.2-10.78-26.86-16.79-16.85-11.7-36.86-15.61-55.54-22.82C759.8,155.56,739,151.6,718.45,147.4c-21.32-4.35-43-6.79-64.6-10-9.35-1.4-18.68-3-28.08-4s-18.69-1.82-28-1.89c-19.75-.16-39.52-.05-59.26.47-13.54.35-27.07,1.44-40.58,2.49-11.8.9-23.65,1.63-35.32,3.48-13.1,2.08-26,5.37-39,8.07-10,2.07-20.19,3.43-30,6.2-16.69,4.71-33.16,10.2-49.66,15.56-3,1-5.67,2.89-8.49,4.37L328,175.78,319.18,181c-2.54,1.22-5.2,2.23-7.59,3.69-10.59,6.45-20.77,13.66-31.73,19.4-9.91,5.19-16.33,13.87-23.71,21.44C251.75,230,250,237.15,247.12,243.11Z" transform="translate(-4.56 -2.29)"/><path class="cls-5" d="M252.42,481.55c-8.27-5.49-16.68-10.77-24.78-16.5-28.61-20.26-50-45.84-59.15-80.47a47.33,47.33,0,0,1,.13-23.41c1.92-8.13,3.9-16.29,8.62-23.41.45-.69.88-1.4,1.41-2.24.6.32,1.17.42,1.39.76,6,9.24,14.41,16.12,22.2,23.69,7.35,7.14,16.17,11.61,24.79,16.62a4.78,4.78,0,0,1,2.25,3.26c.15,18.64,8.73,33.13,21.64,45.84,9.75,9.6,21.56,16.32,32.32,24.51,6.45,4.91,13.76,8,21.37,10.75,8.77,3.17,17,7.81,25.82,10.85,13.73,4.74,27.69,8.83,41.64,12.87,11.59,3.34,23.21,6.69,35,9.17,15.9,3.34,31.73,7.16,48.12,7.85,9.59.41,19.11,2.17,28.68,3.11,4.78.47,9.62.39,14.42.71,10,.65,19.92,1.51,29.89,2.06,4.3.24,8.63-.11,12.94-.1,13,0,25.92.45,38.85,0,11.2-.38,22.38-1.66,33.54-2.78,2.13-.22,3.08.3,4.06,2,1.44,2.56,3.26,4.92,4.83,7.42,1.69,2.7,4.16,3.38,7,2.68,14.26-3.47,28.81-6.09,42.62-10.87,9-3.12,17.94-2.34,26.87-3.52,17.6-2.32,35.22-4.52,52.88-6.41,10.79-1.15,21.68-1.37,32.48-2.47,13.62-1.38,27.18-3.26,40.77-4.85,14.22-1.66,28.45-3.13,42.65-4.88,4-.49,7.95-1.65,11.92-2.48,1.08-.23,2.17-.38,3.25-.57l.57,1.2a18.83,18.83,0,0,1-3.53,2.46c-12.68,5.06-25.29,10.36-38.15,14.91-10,3.53-20.47,5.59-30.42,9.18-23.29,8.41-47.57,12.88-71.56,18.36-15.45,3.52-31.38,5-47.1,7.36-3.29.5-6.56,1.24-9.87,1.44-9.82.6-19.67.86-29.49,1.49-15,1-30,2.16-45,3.18-3.07.2-6.16.15-9.24.06-17.4-.52-34.8-1.32-52.2-1.56-13.09-.18-26.2.88-39.26.43-20-.69-39.93-2.06-59.87-3.41-10.51-.72-21-1.65-31.46-3.18-7.52-1.11-14.87-3.34-22.28-5.12-20.59-5-41.26-9.67-61.74-15.06-11.29-3-22.37-6.86-33.35-10.85-9.93-3.61-19.61-7.92-29.4-11.91Z" transform="translate(-4.56 -2.29)"/><path class="cls-1" d="M336.27,174.33a18.17,18.17,0,0,0,2.89-.5c26.77-9.28,53.58-18.38,81.62-23.27,12-2.1,23.93-4.76,35.93-7a63.23,63.23,0,0,1,9.55-.61,2.56,2.56,0,0,1,1.89.87c2.36,3.4,4.61,6.88,7.21,10.8-6.83,1.14-13.23,2.17-19.6,3.28-14.58,2.55-29.31,4.49-43.69,7.89-15.69,3.72-31.62,6.6-46.76,12.6-9.25,3.65-19.15,5.65-28.35,9.39-7.6,3.1-14.7,7.48-21.83,11.62s-13.85,8.58-20.75,12.9c-17.2,10.78-26.31,26.94-29.83,46.35-1.6,8.87,2.39,16.91,6.49,24.59q5.38,10.08,11,20a8,8,0,0,0,2.49,2.58c8.35,5.66,16.7,11.32,25.16,16.83a92.1,92.1,0,0,0,9.37,5.11c2.42,1.2,5.11,1.91,7.46,3.22,19.25,10.75,40.44,16.21,61.29,22.61,4.36,1.34,8.65,2.89,12.95,4.41,18.65,6.58,38.3,8.4,57.62,11.54,13.58,2.2,27.45,2.91,41.23,3.69,27,1.53,54,2.89,81,3.84,19.65.69,39.18-1.6,58.67-3.89,13.82-1.63,27.61-3.53,41.46-4.92,26.67-2.68,52.7-8.85,78.72-14.84,8.46-1.94,16.26-6.74,24.42-10.07,6.28-2.57,12.69-4.79,19-7.35,15.65-6.36,29.45-16,43.64-24.95a39.57,39.57,0,0,0,6.82-6.21c4.62-4.78,9.4-9.45,13.6-14.59,7.66-9.38,12.23-19.61,7.67-32.11-1.81-4.94-2.68-10.22-4.14-15.29a17.45,17.45,0,0,0-2.29-5c-9.67-13.85-20.43-26.28-35.73-34.69-29.25-16.09-60.31-26.74-92.79-33.72-11.33-2.44-22.57-5.37-34-7.34-17.36-3-34.79-5.75-52.28-7.84-12.09-1.45-24.34-1.64-36.52-2.33-8.36-.47-16.74-1.24-25.1-1.18-22.68.17-45.35.74-68,1.08-8.8.14-9-.07-11.69-8.34-.61-1.86-1.16-3.74-2-6.44,4.71-.39,9.05-1.05,13.39-1.05q37.8-.06,75.58.15c5.68,0,11.39,0,17,.57,11.49,1.2,23,2.67,34.39,4.27,20.28,2.83,40.61,5.34,60.76,8.94,16.25,2.9,32.36,6.85,48.35,11,8.75,2.29,17.15,5.93,25.66,9.12,9.7,3.63,19.07,8.58,29.06,10.88,12.48,2.87,21.93,10.86,32.68,16.56a92.91,92.91,0,0,1,28.23,23.63c4.75,5.83,8,12.91,11.78,19.5a46.74,46.74,0,0,1,4,8.32,42.23,42.23,0,0,1,.85,25.53c-3.18,10.65-6.22,21.66-13.89,30.34a71.08,71.08,0,0,1-9.34,9.42c-8,6.15-15.63,12.8-24.93,17.2-4.63,2.18-8.36,6.21-12.91,8.61-6.74,3.54-14,6.14-20.79,9.55-13.37,6.69-28.07,7.76-42.4,10.49-16.56,3.15-33.14,6.22-49.64,9.68-8.9,1.87-17.62,4.56-26.46,6.75q-17.2,4.26-34.48,8.26a60.34,60.34,0,0,1-6.49.84c-.27-.22-.55-.34-.63-.53-3.45-8.3-5.41-6.93-12.39-6-11.09,1.57-22.13,3.47-33.15,5.43-2.63.47-5.12,1.73-7.65,2.71-.66.25-1.62.74-1.72,1.26-.8,4.22-4,3.43-6.85,3.43-14.17,0-28.39.73-42.52-.08-24.38-1.39-48.72-3.62-73.06-5.68-9.71-.82-19.47-1.57-29-3.31-13.68-2.48-27.3-5.45-40.77-8.92-14.28-3.69-28.44-7.94-42.48-12.49-7.22-2.34-14-6.07-21.09-8.82-8.5-3.28-17.22-6-25.7-9.3-11.2-4.36-20.33-12.08-29.88-19.07-4.64-3.4-9.08-7.06-13.63-10.58-8.81-6.82-13.92-16.25-18-26.23-3.43-8.47-6.39-17.25-5.54-26.58.46-5,2-10,3-15a48.83,48.83,0,0,0,3.49-6.37c4.52-12.18,13.3-21.38,23.23-28.67,12.84-9.44,27.12-16.94,40.82-25.22C323.34,181.88,329.82,178.13,336.27,174.33Z" transform="translate(-4.56 -2.29)"/><path class="cls-5" d="M654,390.09c20.08-5,39.4-10,58.82-14.47,10.44-2.42,21.07-3.95,31.59-6,6.27-1.24,12.46-2.84,18.73-4.1,20-4,40.08-8.09,60.15-12,21.28-4.11,42.66-7.71,63.88-12.1,19.89-4.11,39.62-9,59.44-13.47,16.81-3.76,33.63-7.46,50.49-11,10.23-2.14,20.6-3.61,30.78-5.92,9.23-2.09,18.22-5.25,27.45-7.32,12.13-2.72,24.32-5.35,36.62-7,6.34-.84,13,.43,19.46,1.06,1.49.14,3,1.39,4.23,2.43,3.59,3,7.66,5.75,10.4,9.44,3,4,2.66,8.94,1.14,13.84-1.63,5.27-2.55,10.76-4,16.1-.34,1.23-1.43,2.84-2.53,3.19-5.45,1.78-10.94,3.84-16.57,4.62-14.14,2-28.36,3.37-42.56,4.89-11.39,1.21-22.81,2.17-34.19,3.41-6.12.66-12.19,1.77-18.3,2.53-9.52,1.19-19.12,3.51-28.59,3.11-17.94-.77-35.26,3.1-52.84,5-14.45,1.58-28.84,3.75-43.27,5.53q-29.73,3.66-59.47,7.11c-8.93,1-17.95,1.38-26.85,2.6-11.1,1.52-22.1,3.74-33.18,5.44-11.55,1.77-23.14,3.23-34.7,4.91-5.47.8-10.89,2-16.38,2.63-8.61,1-17.27,1.5-25.88,2.48-7.34.84-14.65,2-22,3.11-5.48.86-5.78.82-8.5-4C656.2,394.11,655.05,392,654,390.09Zm441.24-58.57c3.66-.88,7.79-1.59,11.72-2.91,3.62-1.21,5.1-4.81,4.25-8.78-1-4.6-6-9.46-10.72-10-3.53-.43-7.11-.37-10.67-.57-6.42-.36-9.28,1.94-12.3,8.47-2.47,5.33,0,10.34,5.62,11.77C1086.9,330.42,1090.84,330.8,1095.21,331.52Z" transform="translate(-4.56 -2.29)"/><path class="cls-5" d="M663.84,483.06c-.5-.95-1-1.9-1.81-3.45,2.18-.44,3.9-.77,5.62-1.13,24.11-5,48.18-10.35,72.36-15,14.51-2.81,29.28-4.27,43.79-7.06,10.86-2.09,21.42-5.73,32.25-8,15.43-3.21,31-5.53,46.48-8.69,21-4.3,41.83-9.26,62.82-13.55,24.09-4.93,48.26-9.45,72.41-14.1,16.69-3.22,33.44-6.2,50.09-9.64,9.14-1.88,18.12-4.51,28-7,.17,6,.36,11.71.44,17.4a36,36,0,0,1-.55,3.64c-.26,2.81.24,4.65,3.9,4.61,6.62-.08,13.26.68,19.87.47,7.44-.24,12.6-4.54,16-10.92a14.4,14.4,0,0,0,1-4.61c.39-2.77.69-5.55,1.09-8.83,5.73,2.83,8.55,7.37,10.08,12.55,2.43,8.2-1.78,15.41-4.42,22.75-.41,1.14-2.47,1.84-3.9,2.41-10.47,4.16-21.55,4.84-32.62,5.87-9.8.91-19.54,2.53-29.3,3.82-18.18,2.42-36.35,4.93-54.55,7.22-23,2.88-45.94,5.71-68.95,8.32-23.63,2.67-47.3,4.94-70.94,7.57-11.5,1.28-22.93,3.22-34.45,4.39-9,.92-18.14,1-27.19,1.67-4,.31-8,1.41-12,1.94-8.19,1.07-16.39,1.94-24.58,3-22.72,2.87-45.43,5.86-68.17,8.65-7,.85-14,1.15-21,1.78a37.79,37.79,0,0,0-4.28.88,10.05,10.05,0,0,1-2.91-1.46C666.74,486.82,665.34,484.89,663.84,483.06Z" transform="translate(-4.56 -2.29)"/><path class="cls-5" d="M827.33,422c-14.29,9.4-28.49,18.91-44.74,24.86-6.91,2.53-13.4,6.19-20.28,8.82-3.38,1.29-7.23,1.37-10.85,2.08q-26.1,5.1-52.2,10.25-18.5,3.64-37,7.27c-.6.12-1.4.4-1.8.14-5.07-3.37-10.33-1-15.45-.41-7.94.95-15.83,2.36-23.75,3.59a7.72,7.72,0,0,0-2.14.53c-11.61,5.62-24.15,5.91-36.59,5.81-19.63-.16-39.26-.77-58.87-1.53-10.84-.42-21.63-1.64-32.46-2.27-12.18-.71-24.43-.66-36.56-1.88-11.14-1.13-22.22-3.25-33.23-5.42-11.23-2.22-22.51-4.46-33.47-7.71-18.52-5.49-36.89-11.49-55.12-17.87-7.16-2.51-13.58-7.07-20.67-9.86-10-3.94-18.51-10.25-27.29-16.14-2.75-1.85-6-3.35-8-5.79-4.84-5.66-9.13-11.79-13.64-17.73l.69-.72a11.27,11.27,0,0,1,2,.44c10.57,4.35,21,9,31.71,13.05,26.44,10.11,53.69,17.54,81.3,23.6,22,4.83,44.1,9.4,66.27,13.43,12.36,2.24,25,2.78,37.44,4.66a477.17,477.17,0,0,0,88.95,5.26c24.31-.89,48.64-1.54,72.92-3,10.3-.6,20.49-2.92,30.73-4.47q30.7-4.66,61.39-9.35c13.55-2.06,27-4.66,39.68-10,10-4.2,20.38-6.49,30.87-8.48,6.56-1.25,13.27-1.71,19.92-2.53C827.16,421.11,827.24,421.55,827.33,422Z" transform="translate(-4.56 -2.29)"/><path class="cls-6" d="M907.73,480.93c-7.48,3.77-15.06,7.37-22.42,11.36-7.68,4.18-14.86,9.36-22.77,13-16.35,7.5-32.19,16.24-49.83,20.79s-34.79,10.16-52.4,14.31-35.25,7.51-53,10.3c-24.07,3.78-48.42,4.43-72.75,5-17.65.4-35.31,1.31-53,1.22-39.76-.18-79.52-.81-119.29-1.33-17.36-.23-34.23-3.52-51-7.85-13.25-3.43-26.71-6.2-40.23-8.34A296.78,296.78,0,0,1,296.82,517c-10.11-4.49-20.94-7.5-30.74-12.56-14.21-7.33-28.77-14.22-41-24.94-6.38-5.58-13.53-10.28-20.06-15.7-2.41-2-3.94-5-6-7.42-3.83-4.36-8.19-8.31-11.62-12.95-9.6-13-17-27.12-20.26-43.13-.51-2.45-1.08-4.89-1.62-7.34l1-.3c.58,1.67,1.06,3.39,1.75,5,5.6,13.06,11.86,25.84,20.75,36.95,5.5,6.88,12.28,12.73,18.52,19,12.2,12.28,26.62,21.74,41.28,30.55A254,254,0,0,0,318.28,513c2.28.57,4.62.86,6.88,1.46,6.64,1.75,13.22,3.73,19.89,5.37,12.7,3.1,25.46,5.92,38.15,9.06,10.64,2.63,21.14,5.89,31.85,8.21,6.34,1.38,12.95,1.67,19.47,2.1,19.83,1.32,39.65,3,59.51,3.54,18,.53,36-.29,54-.25,16.05,0,32.11.88,48.15.6,23.33-.41,46.68-1,70-2.48,18.07-1.17,36.14-3.23,54-6.07,36.64-5.8,72.43-15.28,107.69-26.78,2.58-.84,5.23-1.47,7.88-2.09,13.54-3.17,26.16-8.71,38.68-14.62,9.47-4.47,19.18-8.43,28.81-12.53a13.9,13.9,0,0,1,3.63-.53Z" transform="translate(-4.56 -2.29)"/><path class="cls-6" d="M169.73,297c3.81,7.41,7.86,14.7,11.33,22.26a49.76,49.76,0,0,0,12.37,17.25A291.58,291.58,0,0,0,249,375.09c12.46,6.65,25.24,12.75,38.08,18.66,4.42,2,9.54,2.5,14.2,4.08,5.46,1.85,10.7,4.38,16.18,6.18,6.18,2,12.5,3.67,18.8,5.32,19.91,5.22,39.86,10.3,59.77,15.56,18.1,4.78,36.53,8.12,55.19,7.7,12.4-.29,24.17,2.77,36.29,3.63,12.8.9,25.63,1.7,38.45,2.23,17.52.72,35,1.19,52.56,1.7,10.85.32,21.72.86,32.56.66,18.74-.34,37.49-.74,56-4.05q29-5.19,58.1-10.22c11.19-1.93,22.49-3.27,33.58-5.66s21.7-5.69,32.54-8.58c14.17-3.77,28.36-7.43,42.5-11.32,8-2.19,15-6.42,22.32-10.12,7-3.53,15.72-3.66,23.68-5.28.19.5.38,1,.56,1.49a13.32,13.32,0,0,1-2.83,2.26c-3.27,1.42-6.75,2.42-10,4-4.47,2.16-8.77,4.67-13.14,7-.64.35-1.26.76-1.93,1.09A278.52,278.52,0,0,1,789,423.35c-8.8,1.87-17.37,4.77-26.12,6.87-10.06,2.42-20.18,4.56-30.32,6.63-9.9,2-19.83,3.93-29.8,5.63-9.59,1.63-19.24,3-28.87,4.37-7.33,1.08-14.64,2.42-22,3-15.72,1.32-31.45,2.5-47.2,3.27s-31.57,1.18-47.36,1.35c-9.74.1-19.51-.23-29.23-.93-14-1-28-2.37-41.92-3.88-13.72-1.48-27.48-2.89-41.08-5.16-16.41-2.75-32.7-6.2-49-9.68q-20.56-4.41-40.94-9.64c-7.5-1.92-14.67-5.26-22.23-6.77-13-2.59-25.15-7.79-37.63-12-10.32-3.46-20.55-6.93-30-12.49-12.1-7.12-24.36-14-36.5-21-5.85-3.42-11.78-6.78-17.31-10.68-9.67-6.82-19.63-13.48-25.88-23.94-3.95-6.61-7.36-13.56-11-20.35a5.9,5.9,0,0,0-.94-1.58c-5.58-5.34-3.12-12.72-5.37-18.9Z" transform="translate(-4.56 -2.29)"/><path class="cls-1" d="M235,382.79c6.65,3.15,12.87,6.06,19.06,9.06a3.69,3.69,0,0,1,1.32,1.68,14.69,14.69,0,0,1,1.6,3.73c1.77,9.45,8.86,15,15.24,21.07a75.61,75.61,0,0,0,22.93,15.38c2.11.89,3.88,2.6,5.81,3.92a24.36,24.36,0,0,0,4,2.66c9.23,4,18.34,8.38,27.81,11.73,13.82,4.89,27.91,9,41.87,13.5,4.34,1.4,8.65,2.89,13,4.41,18.64,6.59,38.29,8.39,57.6,11.52,13.59,2.2,27.45,2.9,41.22,3.69,26.48,1.53,53,3,79.48,3.76,13.9.41,27.84-.72,41.67-1.16l6,13.94c-7.3.44-14.85,1.16-22.41,1.29-14.05.25-28.11.19-42.16.2-10.48,0-21,.55-31.43-.2-26.45-1.89-52.9-4-79.26-6.82-11.2-1.21-22.18-4.52-33.26-6.85-4.7-1-9.5-1.63-14.1-2.95-5.43-1.55-10.63-3.92-16.07-5.46-9.35-2.67-18.94-4.57-28.17-7.56-7.23-2.34-14-6.06-21.1-8.81-8.49-3.29-17.19-6-25.68-9.33-11-4.26-19.65-12.21-29.34-18.53a86.46,86.46,0,0,1-21.22-19.72,79.8,79.8,0,0,1-6.31-9.46c-2.07-3.63-3.48-7.66-5.68-11.2C234.73,392.11,234.47,387.77,235,382.79Z" transform="translate(-4.56 -2.29)"/><path class="cls-5" d="M1030.34,492c2.48-.44,4.94-1,7.43-1.31,11.33-1.67,22.67-3.26,34-5,3.15-.47,5.25-.6,7.39,3,3.41,5.78,10,5.94,15.92,5.27a57,57,0,0,0,13.18-3.5,6.29,6.29,0,0,0,3.25-4.24,9.11,9.11,0,0,1,4.31-6.83c5.83-3.74,11.55-7.66,14.62-14.29a2.93,2.93,0,0,1,2.62-1.13c8.39,3.46,17,6.57,25,10.86,5.3,2.86,7.36,13,5.1,19-1.26,3.35-2.55,6.69-4,9.93-2.72,5.95-8.46,8-13.95,10.11-17.08,6.52-34.72,7.73-52.77,5.24-8.66-1.19-17.46-1.39-26.09-2.74-10.94-1.71-20.6-6.84-29.24-13.52-3.11-2.4-5-6.39-7.41-9.66Z" transform="translate(-4.56 -2.29)"/><path class="cls-6" d="M888.8,469.36c11.89-1.44,23.77-2.93,35.66-4.32,24.87-2.91,49.75-5.63,74.6-8.71,16-2,32-4.48,48-6.72,12-1.67,23.93-3.45,35.93-4.9,6.94-.84,14-.72,20.9-1.79,5.18-.8,10.15-2.91,15.27-4.21,1.33-.33,3.91-.14,4.12.43.52,1.49.7,4.24-.17,4.88-3.49,2.58-7.19,5.67-11.24,6.52-9,1.9-18.27,2.69-27.45,3.72-15.94,1.8-31.91,3.32-47.85,5.16-21.2,2.45-42.37,5.17-63.57,7.64-17,2-34.09,3.61-51.1,5.7-10.89,1.34-21.69,3.47-32.59,4.82-28.17,3.48-56.37,6.69-84.56,10.08-12.25,1.47-24.44,3.64-36.74,4.56-26.82,2-53.36,7.22-80.36,7a55.91,55.91,0,0,1-8.49-.59,9.3,9.3,0,0,1-4.15-2,3.4,3.4,0,0,1-.86-2.85c.12-.54,1.52-1,2.4-1.14,6.25-.71,12.52-1.28,18.78-2,15.2-1.64,30.4-3.22,45.58-5,26.48-3.09,52.93-6.43,79.41-9.44,20.1-2.29,40.25-4.23,60.37-6.35,2.68-.29,5.34-.79,8-1.19Z" transform="translate(-4.56 -2.29)"/><path class="cls-6" d="M912,379.7c-5.48.82-10.95,1.8-16.46,2.43-9.43,1.08-18.91,1.73-28.32,2.94-15.79,2-31.54,4.44-47.32,6.54-24,3.2-48,6.21-71.94,9.42-5.7.77-11.31,2.45-17,2.9-12.29,1-24.63,1.29-36.94,2.1-9.46.61-18.89,1.6-28.34,2.28-1,.07-2.1-.78-3.15-1.2.85-.88,1.58-2.35,2.55-2.53,7.28-1.32,14.59-2.52,21.93-3.5,16.26-2.18,32.55-4.15,48.81-6.33,21.52-2.89,43-5.93,64.54-8.86,10.26-1.4,20.51-2.8,30.78-4,11.61-1.4,23.27-2.46,34.86-3.95,7.33-.94,14.55-2.69,21.88-3.58,11.27-1.38,22.6-2.23,33.88-3.49,14.08-1.57,28.09-3.83,42.2-4.92,31.19-2.41,62.19-6.52,93.31-9.49,14.46-1.37,29-2.57,43.33-4.55,6.6-.91,12.94-3.62,19.45-5.3a5.32,5.32,0,0,1,4,.81c.47.34.19,2.91-.5,3.4-2.46,1.73-5.09,3.63-7.93,4.32-7.53,1.83-15.19,3.19-22.84,4.48-3.39.57-6.89.42-10.32.77-18.54,1.85-37.09,3.54-55.59,5.69-19.59,2.28-39.14,4.91-58.68,7.57-10,1.36-19.88,3.43-29.88,4.64-8.68,1.05-17.45,1.33-26.18,2Z" transform="translate(-4.56 -2.29)"/><path class="cls-6" d="M868.85,411.17c-10.47,1.37-21.28.26-31.42,4.22-.82.32-2.11-.59-3.17-.93.65-.91,1.15-2.42,2-2.63,6.2-1.54,12.47-2.8,18.7-4.2,11.67-2.62,23.28-5.54,35-7.84,11-2.16,22.09-4.67,33.24-5.28a805.2,805.2,0,0,0,89-10c19.57-3.27,39.42-4.81,59.11-7.38,9.66-1.26,19.25-3.08,28.86-4.69,6.21-1,12.44-2,18.58-3.34,2.57-.56,4.93-2.1,7.4-3.14.94-.39,1.94-.61,2.92-.91.26,1.12.9,2.31.71,3.34-1.6,8.59-8,12.83-15.54,14.47-9.47,2.08-19.24,2.88-28.92,3.88-11.41,1.18-22.91,1.62-34.29,3-25.42,3.18-50.75,7.06-76.19,10.08-19.23,2.28-38.58,3.47-57.84,5.51-14.11,1.49-28.15,3.59-42.23,5.37C872.79,411,870.82,411,868.85,411.17Z" transform="translate(-4.56 -2.29)"/><path class="cls-6" d="M874.33,505.29c-.12-.09-1.15-.47-1.29-1.07a2.39,2.39,0,0,1,.92-2.12c7.88-3.4,15.55-7.9,23.8-9.68,11.27-2.42,23-2.6,34.51-4,10.89-1.36,21.71-3.21,32.59-4.64,20.54-2.7,41.08-5.44,61.66-7.8,12.13-1.39,24.36-1.87,36.5-3.15,12.75-1.34,25.46-3.14,38.18-4.76,5.26-.67,10.55-1.18,15.76-2.13,2.6-.47,5-1.81,7.58-2.64a14.87,14.87,0,0,1,2.93-.37c-.11,1.13.22,2.82-.39,3.29-7.32,5.63-13.5,13.11-24,13.42-9.86.29-19.71,1.17-29.53,2.06-4.91.44-9.74,1.55-14.62,2.25-17.08,2.44-34.15,5-51.25,7.2-10.52,1.37-21.09,2.3-31.65,3.35-4.17.41-8.41.32-12.55.91-12.69,1.79-25.31,4.06-38,5.62-9.17,1.12-18.45,1.32-27.66,2.07C890.2,503.69,882.62,504.5,874.33,505.29Z" transform="translate(-4.56 -2.29)"/><path class="cls-5" d="M861,401.06c1.46-1.11,2.78-2.51,4.4-3.27,4-1.86,8.31-3.21,12.25-5.22,2.18-1.11,3.8-3.26,5.83-4.71a8.68,8.68,0,0,1,3.91-1.59c13.13-1.32,26.29-2.38,39.42-3.77,14-1.48,27.92-3.2,41.87-4.88,15.43-1.85,30.86-3.8,46.29-5.66,16.17-2,32.57-2.8,48.45-6.12,14.33-3,28.92-2.79,43.14-5.71,3.62-.74,7.35-1.36,10.7-2.8,4.65-2,9.19-4.47,10-10.6l1.11.33c.12,1.32.27,2.63.37,3.95.65,8.25-2.41,13.16-10.43,14.83q-17.36,3.6-34.93,6.1c-20.13,2.84-40.32,5.25-60.48,7.86-18.07,2.33-36.13,4.75-54.2,7-17.36,2.21-34.7,4.66-52.11,6.35s-34.64,5.09-51.71,9.06a15,15,0,0,1-3.21,0C861.4,401.87,861.2,401.46,861,401.06Z" transform="translate(-4.56 -2.29)"/><path class="cls-5" d="M905.44,486.6c10-3.75,18.47-10.82,30.27-11.2a262.33,262.33,0,0,0,39.92-4.86c18.91-3.58,37.83-6.41,57.08-7.42,27.5-1.44,54.73-5.53,81.9-9.89a46.22,46.22,0,0,0,4.74-.68c3.7-1,7.27-6.6,7.59-11.59a6.5,6.5,0,0,1,.06-1.83,24.79,24.79,0,0,1,1.52-2.82c.47.89,1.26,1.73,1.37,2.66a46.44,46.44,0,0,1,.58,9.17c-.84,9.69-9.86,14.83-17.22,15.68-13.21,1.53-26.5,2.42-39.73,3.84-16.28,1.75-32.53,3.88-48.81,5.64-9.19,1-18.48,1.13-27.62,2.39-14.62,2-29.15,4.75-43.75,7-5.35.81-10.8.9-16.18,1.51-9.17,1-18.33,2.25-27.49,3.33a32.36,32.36,0,0,1-3.94,0C905.63,487.21,905.53,486.91,905.44,486.6Z" transform="translate(-4.56 -2.29)"/><path class="cls-5" d="M961.66,405.22c0,1.54,0,2.49,0,3.44.27,5.4.16,5.21-5.12,6.38-16.43,3.64-32.78,7.68-49.23,11.23-19.84,4.27-39.76,8.2-59.64,12.27a14.26,14.26,0,0,1-2.08,0c3.16-2.47,5.77-4.48,8.35-6.54,5.93-4.72,12.29-9,16.14-15.88.35-.63,1.7-.9,2.61-1,20.86-1.75,41.37-6.49,62.4-6.92,6.24-.12,12.45-1.72,18.69-2.53C956.29,405.38,958.84,405.38,961.66,405.22Z" transform="translate(-4.56 -2.29)"/><path class="cls-5" d="M670.15,500.48a30.33,30.33,0,0,1-3.57,1.52c-11.25,3.24-22.55,6.3-33.75,9.69-3.73,1.13-6.22.12-8.18-2.92-4.12-6.38-8.13-12.83-12.32-19.17-1.74-2.65-1.19-4,1.87-4.57,11-2.1,21.91-4.58,33-6.24,9.44-1.41,9.27-.87,13.7,7.58C663.34,491.1,666.73,495.35,670.15,500.48Z" transform="translate(-4.56 -2.29)"/><path class="cls-6" d="M1098,532.45c-8.71-.86-17.62-.86-26.08-2.8-10.25-2.34-20.77-4.56-30-10.12a35.27,35.27,0,0,1-16.29-20.74c-.26-.89.19-2,.31-3a14.64,14.64,0,0,1,3.14,1.13,5.48,5.48,0,0,1,1.49,2.08c5.6,10.45,15.36,15.08,26,18.4,16.26,5.07,33,5.6,49.84,5.19,9.32-.22,18.75,0,27.92-1.42a62.89,62.89,0,0,0,19.42-6.81c3.36-1.78,5.29-6.21,8-9.33a18.2,18.2,0,0,1,3.14-2.37c.1,1.42.72,3.09.21,4.24-4.89,10.9-12.92,17.38-24.95,20.25C1126.21,530.49,1112.38,532.94,1098,532.45Z" transform="translate(-4.56 -2.29)"/><path class="cls-5" d="M656.65,403.57c-1.69.82-3.15,1.91-4.77,2.24-5.66,1.13-11.37,2-17.06,3-6.9,1.21-13.78,2.54-20.7,3.59a4.42,4.42,0,0,1-3.67-1.3c-3.65-5.55-7.07-11.26-10.45-17-1.36-2.31-.85-3.82,2.16-4.34,13.08-2.23,26.12-4.69,39.22-6.81,1.21-.19,3.27,1.07,4,2.24,2.79,4.62,5.14,9.5,7.79,14.21A32.7,32.7,0,0,0,656.65,403.57Z" transform="translate(-4.56 -2.29)"/><path class="cls-1" d="M1090.35,418.76c-9.68-.87-9.62-.87-9.87-10.07-.12-4.3-.45-8.59-.74-12.88-.15-2.15.52-3.58,2.82-3.95q13.29-2.12,26.57-4.26c2.19-.35,3.28.68,3.32,2.81.07,3.28.14,6.57.07,9.86-.06,2.66.39,5.63-.65,7.89-1.25,2.68-3.4,5.83-5.93,6.85C1101,417,1095.57,417.58,1090.35,418.76Z" transform="translate(-4.56 -2.29)"/><path class="cls-1" d="M775.14,454.36c10.33-4.84,20.39-8.91,29.82-14.12,10.43-5.77,20.28-12.6,30.41-18.93a9.7,9.7,0,0,1,3.29-1.51c8.49-1.37,17-2.63,26.11-3.31-2.8,2.95-5.35,6.19-8.45,8.79-5.38,4.51-11.09,8.62-16.67,12.9-5.08,3.89-11.43,3.38-17.2,4.85-6.07,1.54-12.74,1.7-18.23,4.35-8.19,4-17.07,4.11-25.44,6.66A19.35,19.35,0,0,1,775.14,454.36Z" transform="translate(-4.56 -2.29)"/><path class="cls-7" d="M1063.17,394.31c-2.5.94-4.93,2.22-7.51,2.76-12.89,2.7-25.82,5.23-38.76,7.75-3.62.7-7.31,1.08-10.95,1.73-11.13,2-22.23,4.1-33.38,6-1.46.24-4.13-.31-4.49-1.2-1.16-2.9,1.31-7.22,3.84-7.48,18-1.86,36.07-3.55,54.07-5.54,6.48-.72,12.88-2.14,19.32-3.22q8.61-1.44,17.23-2.84Z" transform="translate(-4.56 -2.29)"/><path class="cls-8" d="M336.27,174.33c-6.45,3.8-12.93,7.55-19.34,11.43-13.7,8.28-28,15.78-40.82,25.22-9.93,7.29-18.71,16.49-23.23,28.67a48.83,48.83,0,0,1-3.49,6.37l-2.27-2.91c2.92-6,4.63-13.1,9-17.62,7.38-7.57,13.8-16.25,23.71-21.44,11-5.74,21.14-13,31.73-19.4,2.39-1.46,5.05-2.47,7.59-3.69,3.61-.58,6.85-1.79,8.81-5.18l7.42-3.61Z" transform="translate(-4.56 -2.29)"/><path class="cls-6" d="M969.72,268.49c1,14.21,1.86,28.21-3.82,41.61-1.35,3.18-1.54,6.83-2.46,10.21a3.69,3.69,0,0,1-2,2.24,25.36,25.36,0,0,1-6.15,1.25c-2.8.22-3.49-1-2.39-3.64,3.84-9.21,8.1-18.27,11.35-27.68,2.09-6.06,2.64-12.65,4-19C968.6,271.8,969.22,270.16,969.72,268.49Z" transform="translate(-4.56 -2.29)"/><path class="cls-9" d="M613.84,416.52a15.65,15.65,0,0,1,3.51-1.53c11.9-2,23.81-3.93,35.72-5.83.76-.12,1.57.15,2.71,1.13-1,.64-1.88,1.66-2.93,1.84-12.14,2.05-24.31,4-36.47,5.9a7.63,7.63,0,0,1-2.12-.32Z" transform="translate(-4.56 -2.29)"/><path class="cls-10" d="M1107.9,484.7c-.71.87-1.3,2.34-2.17,2.53-4.89,1.08-9.84,1.9-14.79,2.71a5.34,5.34,0,0,1-2.92-.24,57.52,57.52,0,0,1-5.08-3c1.74-.7,3.44-1.87,5.23-2,6.35-.55,12.72-.76,19.09-1.1Z" transform="translate(-4.56 -2.29)"/><path class="cls-11" d="M252.42,481.55l17,8.21c-2.07-.5-4.35-.61-6.18-1.57C259.53,486.22,256,483.79,252.42,481.55Z" transform="translate(-4.56 -2.29)"/><path class="cls-12" d="M663.84,483.06c1.5,1.83,2.9,3.76,4.54,5.46a10.05,10.05,0,0,0,2.91,1.46l-1.46,3.34Z" transform="translate(-4.56 -2.29)"/><path class="cls-13" d="M907.73,480.93l-.87-2.9c1.92-.26,3.85-.53,5.77-.76a13.77,13.77,0,0,1,2.3.4Z" transform="translate(-4.56 -2.29)"/><path d="M576.8,298.09c-24.26,0-45.06-1.13-65.66-4.91-2.18-.4-4.45-.31-6.61-.76-13.71-2.86-27.32-6.14-40-12.36-6.06-3-12.24-5.89-17.85-9.6a22.29,22.29,0,0,1-10.34-18.2,69.49,69.49,0,0,1,.56-11.8c1.77-13.41,9.81-21.61,22.24-25.92,6.25-2.17,12.69-3.82,18.79-6.32a155.73,155.73,0,0,1,59.93-12c23.17,0,46.41-.48,69.49,1.15,24.39,1.73,47.68,9.05,69.66,19.91,6.34,3.13,12.82,6.26,17.21,12.4,2.22,3.1,3.94,6.05,4.2,10,.59,8.85.34,17.52-3.92,25.58a11.76,11.76,0,0,1-2.95,3.71,113.23,113.23,0,0,1-36.65,18.8A241,241,0,0,1,576.8,298.09Zm11.56-14.39v-.32c8,0,16.07.37,24.07-.11a133.66,133.66,0,0,0,21.56-2.9c6-1.38,11.63-4.73,17.67-6.07,12.2-2.7,23.68-6.62,33.81-14.24,6.24-4.7,9.44-10.57,9.12-18.31-.35-8.22-5-13.57-12-17.28-2.17-1.17-4.63-1.86-6.67-3.2a100.43,100.43,0,0,0-33.62-14.42c-14.37-3.28-28.7-6.23-43.44-6.44-21.22-.3-42.46-.25-63.69-.36-3.18,0-6.43-.46-9.55,0-6.83,1-13.6,2.35-20.39,3.6a48.46,48.46,0,0,0-6.13,1.34c-6.59,2.06-13.19,4.08-19.68,6.42-13.82,5-28.15,9-35.86,23.6-3.2,6.06-1.85,19.48,4.15,23.35,6.8,4.38,13.73,9,21.23,11.74,8.95,3.32,18.49,5.21,27.91,7.06,12.1,2.38,24.31,4.22,36.5,6.06a128,128,0,0,0,28.29.63C570.54,283.2,579.47,283.7,588.36,283.7Z" transform="translate(-4.56 -2.29)"/><path class="cls-14" d="M328,175.78c-2,3.39-5.2,4.6-8.81,5.18Z" transform="translate(-4.56 -2.29)"/><path class="cls-15" d="M1095.21,331.52c-4.37-.72-8.31-1.1-12.1-2.06-5.66-1.43-8.09-6.44-5.62-11.77,3-6.53,5.88-8.83,12.3-8.47,3.56.2,7.14.14,10.67.57,4.75.58,9.73,5.44,10.72,10,.85,4-.63,7.57-4.25,8.78C1103,329.93,1098.87,330.64,1095.21,331.52Zm-.86-17.93c-1.58,0-2.82,0-4,0a9,9,0,0,0-9.09,5.61c-1.47,3.28-.25,6,3.26,6.72,6.33,1.23,12.65,1.83,19-.34,3.78-1.3,4.9-3.84,2.79-7.24C1103.35,313.67,1099,312.84,1094.35,313.59Z" transform="translate(-4.56 -2.29)"/><path class="cls-1" d="M588.36,283.7c-8.89,0-17.82-.5-26.67.13a128,128,0,0,1-28.29-.63c-12.19-1.84-24.4-3.68-36.5-6.06-9.42-1.85-19-3.74-27.91-7.06-7.5-2.79-14.43-7.36-21.23-11.74-6-3.87-7.35-17.29-4.15-23.35,7.71-14.61,22-18.63,35.86-23.6,6.49-2.34,13.09-4.36,19.68-6.42a48.46,48.46,0,0,1,6.13-1.34c6.79-1.25,13.56-2.64,20.39-3.6,3.12-.44,6.37,0,9.55,0,21.23.11,42.47.06,63.69.36,14.74.21,29.07,3.16,43.44,6.44A100.43,100.43,0,0,1,676,221.27c2,1.34,4.5,2,6.67,3.2,6.92,3.71,11.6,9.06,12,17.28.32,7.74-2.88,13.61-9.12,18.31-10.13,7.62-21.61,11.54-33.81,14.24-6,1.34-11.64,4.69-17.67,6.07a133.66,133.66,0,0,1-21.56,2.9c-8,.48-16,.11-24.07.11Zm-16.77-80.29-.12.69c-7.63.47-15.27,1-22.91,1.37-12.12.51-23.38,4.76-34.93,7.75-4.25,1.1-8.68,1.72-12.78,3.22a65.58,65.58,0,0,0-12.68,6.12c-5.61,3.58-5.9,10.14-6.73,15.76-.72,4.86-.13,10.57,3.87,14.12a61.1,61.1,0,0,0,13.82,9c12.88,6.22,27,7.52,41,9,9.55,1,19.19,1.12,28.78,1.69,6.27.38,12.55,1.34,18.8,1.17,7.74-.21,15.46-1.4,23.19-2,14.33-1.17,27.28-5.7,38.78-14.55,11-8.43,11.74-25.25,1.22-34.14a59.89,59.89,0,0,0-29.72-13.35C604.73,206.65,588.12,205.29,571.59,203.41Z" transform="translate(-4.56 -2.29)"/><path class="cls-7" d="M1094.35,313.59c4.64-.75,9,.08,11.9,4.75,2.11,3.4,1,5.94-2.79,7.24-6.34,2.17-12.66,1.57-19,.34-3.51-.69-4.73-3.44-3.26-6.72a9,9,0,0,1,9.09-5.61C1091.53,313.62,1092.77,313.59,1094.35,313.59Z" transform="translate(-4.56 -2.29)"/><path d="M571.59,203.41c16.53,1.88,33.14,3.24,49.56,5.82a59.89,59.89,0,0,1,29.72,13.35c10.52,8.89,9.73,25.71-1.22,34.14-11.5,8.85-24.45,13.38-38.78,14.55-7.73.64-15.45,1.83-23.19,2-6.25.17-12.53-.79-18.8-1.17-9.59-.57-19.23-.7-28.78-1.69-14-1.45-28.09-2.75-41-9a61.1,61.1,0,0,1-13.82-9c-4-3.55-4.59-9.26-3.87-14.12.83-5.62,1.12-12.18,6.73-15.76a65.58,65.58,0,0,1,12.68-6.12c4.1-1.5,8.53-2.12,12.78-3.22,11.55-3,22.81-7.24,34.93-7.75,7.64-.33,15.28-.9,22.91-1.37Zm-4.7,61.28L567,263c10,0,20,.19,30-.1a47,47,0,0,0,12-2.05c8.26-2.47,16.51-5.06,24.53-8.21a93.34,93.34,0,0,0,16.67-8.48c4.68-3.05,4.83-9.39.66-13.07a63.31,63.31,0,0,0-12.17-9c-9.93-5.16-19.81-10.71-31.36-11.65-6.76-.55-13.5-1.34-20.26-1.76a232.78,232.78,0,0,0-54.88,2.73c-12.47,2.19-24.92,5-36.44,10.73-8.82,4.4-11.55,18.41-4.85,25.73a5.3,5.3,0,0,0,1.37,1.23c3.09,1.51,6.08,3.41,9.35,4.34,12.9,3.65,25.61,8,39.3,8.37C549.53,262.11,558.2,263.71,566.89,264.69Z" transform="translate(-4.56 -2.29)"/><path class="cls-1" d="M566.89,264.69c-8.69-1-17.36-2.58-26.07-2.82-13.69-.38-26.4-4.72-39.3-8.37-3.27-.93-6.26-2.83-9.35-4.34a5.3,5.3,0,0,1-1.37-1.23c-6.7-7.32-4-21.33,4.85-25.73,11.52-5.75,24-8.54,36.44-10.73A232.78,232.78,0,0,1,587,208.74c6.76.42,13.5,1.21,20.26,1.76,11.55.94,21.43,6.49,31.36,11.65a63.31,63.31,0,0,1,12.17,9c4.17,3.68,4,10-.66,13.07a93.34,93.34,0,0,1-16.67,8.48c-8,3.15-16.27,5.74-24.53,8.21a47,47,0,0,1-12,2.05c-10,.29-20,.1-30,.1Z" transform="translate(-4.56 -2.29)"/><circle cx="881.95" cy="257.6" r="5.58" transform="translate(-34.43 142.31) rotate(-9.22)"/><polyline class="cls-16" points="877.4 255.31 877.4 34.97 962.51 34.97"/><path class="cls-17" d="M1127.38,150.22" transform="translate(-4.56 -2.29)"/><text class="cls-18" transform="translate(977.53 42.63)">Pista</text><polyline class="cls-16" points="622.16 392.69 622.16 612.82 727.73 612.82"/><circle cx="622.16" cy="392.69" r="7.7"/><text class="cls-18" transform="translate(733.93 618.38)">Cabezal</text><ellipse cx="292.54" cy="475.66" rx="11.18" ry="5.77"/><polyline class="cls-16" points="292.54 481.44 292.54 594.71 186.84 594.71"/><path class="cls-16" d="M806,609.79" transform="translate(-4.56 -2.29)"/><text class="cls-18" transform="translate(285.43 18.87)">Sector</text><text class="cls-18" transform="translate(127.46 599.34)">Plato</text><polyline class="cls-16" points="492.84 94.76 524.74 195.16 498.24 197.86 440.07 99.64"/><ellipse cx="478.65" cy="113.29" rx="7.43" ry="3.39"/><polyline class="cls-16" points="478.65 113.29 478.65 13.87 364.56 13.87"/><ellipse cx="251.25" cy="252.87" rx="5.59" ry="3.52"/><ellipse cx="248.56" cy="406.68" rx="6.21" ry="3.11"/><polyline class="cls-16" points="251.25 252.87 95.11 298.21 248.56 406.68"/><path class="cls-16" d="M111.52,251.64" transform="translate(-4.56 -2.29)"/><path class="cls-16" d="M63.39,215.32" transform="translate(-4.56 -2.29)"/><text class="cls-18" transform="translate(0 303.7)">Cilindro</text></g></svg>