<svg xmlns="http://www.w3.org/2000/svg" viewBox="0 0 1174.96 651.16"><defs><style>.a{fill:#b3b3b3;}.a,.b,.c,.d,.e,.f,.g{stroke:#000;stroke-miterlimit:10;stroke-width:3px;}.b{fill:#e6e6e6;}.c{fill:#f2f2f2;}.d{fill:#ccc;}.e{fill:#fff;}.f{fill:none;}.h{font-size:22px;font-family:Arial-BoldMT, Arial;font-weight:700;}.i{letter-spacing:-0.2em;}</style></defs><path class="a" d="M1042.66,536.54c0,59.58,145.34,57.26,145.34-3" transform="translate(-14.54 -8.33)"/><ellipse class="b" cx="1115" cy="534.18" rx="72.68" ry="40.13" transform="translate(-31.6 28.85) rotate(-1.9)"/><path class="c" d="M1103.5,417V531a12.5,12.5,0,0,0,24,0V417" transform="translate(-14.54 -8.33)"/><polyline class="a" points="1122.96 512.17 660.96 568.17 651.96 553.17 1095.96 459.17"/><path class="a" d="M1136.5,520.5c9-5,17.39-34.5,7-46-7.5-8.3-19-10-33-7" transform="translate(-14.54 -8.33)"/><polygon class="a" points="647.96 544.17 599.96 554.17 613.96 580.17 662.96 571.17 647.96 544.17"/><polyline class="d" points="1122.49 504.17 660.5 560.17 651.5 545.17 1095.49 451.17"/><path class="d" d="M1110,459.5c14-3,25.5-1.3,33,7,10.39,11.5,2,41-7,46" transform="translate(-14.54 -8.33)"/><polygon class="d" points="647.5 536.17 599.5 546.17 613.5 572.17 662.5 563.17 647.5 536.17"/><line class="a" x1="599.49" y1="546.17" x2="599.96" y2="554.17"/><line class="a" x1="613.49" y1="572.17" x2="613.96" y2="580.17"/><path class="a" d="M677.5,572.5" transform="translate(-14.54 -8.33)"/><line class="a" x1="662.96" y1="571.17" x2="662.49" y2="563.17"/><line class="a" x1="1122.49" y1="504.17" x2="1122.96" y2="512.17"/><ellipse class="c" cx="1100.96" cy="477.17" rx="12" ry="9"/><path class="a" d="M183.3,410.36c0,256,807,246,807-13" transform="translate(-14.54 -8.33)"/><path class="e" d="M183.13,409.94" transform="translate(-14.54 -8.33)"/><ellipse class="b" cx="586.92" cy="406.16" rx="403.46" ry="172.46" transform="translate(-23.24 4.55) rotate(-1.25)"/><path class="e" d="M183.55,414.94" transform="translate(-14.54 -8.33)"/><path class="e" d="M961.3,501.36" transform="translate(-14.54 -8.33)"/><ellipse class="e" cx="586.17" cy="400.38" rx="356.81" ry="149.05" transform="translate(-21.24 1.66) rotate(-0.97)"/><ellipse class="b" cx="586.15" cy="397.37" rx="328.6" ry="134.06" transform="translate(-21.19 1.66) rotate(-0.97)"/><path class="a" d="M454.25,389c0,69.87,264.85,67.14,264.85-3.54" transform="translate(-14.54 -8.33)"/><path class="e" d="M454.19,388.87" transform="translate(-14.54 -8.33)"/><ellipse class="e" cx="586.71" cy="387.84" rx="132.41" ry="47.07" transform="translate(-21.02 1.66) rotate(-0.97)"/><path class="e" d="M454.33,390.23" transform="translate(-14.54 -8.33)"/><path class="e" d="M709.59,413.82" transform="translate(-14.54 -8.33)"/><path class="a" d="M522.18,382.19c0,33.94,128.64,32.61,128.64-1.72" transform="translate(-14.54 -8.33)"/><path class="e" d="M522.16,382.14" transform="translate(-14.54 -8.33)"/><ellipse class="e" cx="586.52" cy="381.64" rx="64.31" ry="22.86" transform="translate(-20.92 1.66) rotate(-0.97)"/><path class="e" d="M522.22,382.8" transform="translate(-14.54 -8.33)"/><path class="e" d="M646.2,394.26" transform="translate(-14.54 -8.33)"/><polyline class="a" points="1122.96 490.17 660.96 546.17 651.96 531.17 1095.96 437.17"/><path class="a" d="M1136.5,498.5c9-5,17.39-34.5,7-46-7.5-8.3-19-10-33-7" transform="translate(-14.54 -8.33)"/><polygon class="a" points="647.96 522.17 599.96 532.17 613.96 558.17 662.96 549.17 647.96 522.17"/><polyline class="d" points="1122.49 482.17 660.5 538.17 651.5 523.17 1095.49 429.17"/><path class="d" d="M1110,437.5c14-3,25.5-1.3,33,7,10.39,11.5,2,41-7,46" transform="translate(-14.54 -8.33)"/><polygon class="d" points="647.5 514.17 599.5 524.17 613.5 550.17 662.5 541.17 647.5 514.17"/><line class="a" x1="599.49" y1="524.17" x2="599.96" y2="532.17"/><line class="a" x1="613.49" y1="550.17" x2="613.96" y2="558.17"/><path class="a" d="M677.5,550.5" transform="translate(-14.54 -8.33)"/><line class="a" x1="662.96" y1="549.17" x2="662.49" y2="541.17"/><line class="a" x1="1122.49" y1="482.17" x2="1122.96" y2="490.17"/><ellipse class="c" cx="1100.96" cy="455.17" rx="12" ry="9"/><path class="c" d="M1103.5,349.5v114a12.5,12.5,0,0,0,24,0v-114" transform="translate(-14.54 -8.33)"/><polyline class="a" points="1122.96 401.17 660.96 457.17 651.96 442.17 1095.96 348.17"/><path class="a" d="M1136.5,409.5c9-5,17.39-34.5,7-46-7.5-8.3-19-10-33-7" transform="translate(-14.54 -8.33)"/><polygon class="a" points="647.96 433.17 599.96 443.17 613.96 469.17 662.96 460.17 647.96 433.17"/><polyline class="d" points="1122.49 393.17 660.5 449.17 651.5 434.17 1095.49 340.17"/><path class="d" d="M1110,348.5c14-3,25.5-1.3,33,7,10.39,11.5,2,41-7,46" transform="translate(-14.54 -8.33)"/><polygon class="d" points="647.5 425.17 599.5 435.17 613.5 461.17 662.5 452.17 647.5 425.17"/><line class="a" x1="599.49" y1="435.17" x2="599.96" y2="443.17"/><line class="a" x1="613.49" y1="461.17" x2="613.96" y2="469.17"/><path class="a" d="M677.5,461.5" transform="translate(-14.54 -8.33)"/><line class="a" x1="662.96" y1="460.17" x2="662.49" y2="452.17"/><line class="a" x1="1122.49" y1="393.17" x2="1122.96" y2="401.17"/><ellipse class="c" cx="1100.96" cy="366.17" rx="12" ry="9"/><path class="a" d="M180.2,294.42c0,256,807,246,807-13" transform="translate(-14.54 -8.33)"/><path class="e" d="M180,294" transform="translate(-14.54 -8.33)"/><ellipse class="b" cx="583.81" cy="290.21" rx="403.46" ry="172.46" transform="matrix(1, -0.02, 0.02, 1, -20.72, 4.45)"/><path class="e" d="M180.44,299" transform="translate(-14.54 -8.33)"/><path class="e" d="M958.2,385.42" transform="translate(-14.54 -8.33)"/><ellipse class="e" cx="583.06" cy="284.43" rx="356.81" ry="149.05" transform="translate(-19.27 1.59) rotate(-0.97)"/><ellipse class="b" cx="583.05" cy="281.42" rx="328.6" ry="134.06" transform="translate(-19.22 1.59) rotate(-0.97)"/><path class="a" d="M451.15,273c0,69.87,264.84,67.14,264.84-3.55" transform="translate(-14.54 -8.33)"/><path class="e" d="M451.09,272.92" transform="translate(-14.54 -8.33)"/><ellipse class="e" cx="583.61" cy="271.89" rx="132.41" ry="47.07" transform="translate(-19.06 1.6) rotate(-0.97)"/><path class="e" d="M451.23,274.29" transform="translate(-14.54 -8.33)"/><path class="e" d="M706.48,297.88" transform="translate(-14.54 -8.33)"/><path class="a" d="M519.08,266.25c0,33.93,128.63,32.61,128.63-1.72" transform="translate(-14.54 -8.33)"/><path class="e" d="M519.05,266.19" transform="translate(-14.54 -8.33)"/><ellipse class="e" cx="583.42" cy="265.69" rx="64.31" ry="22.86" transform="translate(-18.95 1.59) rotate(-0.97)"/><path class="e" d="M519.12,266.86" transform="translate(-14.54 -8.33)"/><path class="e" d="M643.09,278.31" transform="translate(-14.54 -8.33)"/><polyline class="a" points="1122.96 376.17 660.96 432.17 651.96 417.17 1095.96 323.17"/><path class="a" d="M1136.5,384.5c9-5,17.39-34.5,7-46-7.5-8.3-19-10-33-7" transform="translate(-14.54 -8.33)"/><polygon class="a" points="647.96 408.17 599.96 418.17 613.96 444.17 662.96 435.17 647.96 408.17"/><polyline class="d" points="1122.49 368.17 660.5 424.17 651.5 409.17 1095.49 315.17"/><path class="d" d="M1110,323.5c14-3,25.5-1.3,33,7,10.39,11.5,2,41-7,46" transform="translate(-14.54 -8.33)"/><polygon class="d" points="647.5 400.17 599.5 410.17 613.5 436.17 662.5 427.17 647.5 400.17"/><line class="a" x1="599.49" y1="410.17" x2="599.96" y2="418.17"/><line class="a" x1="613.49" y1="436.17" x2="613.96" y2="444.17"/><path class="a" d="M677.5,436.5" transform="translate(-14.54 -8.33)"/><line class="a" x1="662.96" y1="435.17" x2="662.49" y2="427.17"/><line class="a" x1="1122.49" y1="368.17" x2="1122.96" y2="376.17"/><ellipse class="c" cx="1100.96" cy="341.17" rx="12" ry="9"/><path class="c" d="M1191.5,371.5" transform="translate(-14.54 -8.33)"/><path class="f" d="M507.26,234.56l-66.67-103.1-84.17,20.31,34.4,23.75L485.58,241Z" transform="translate(-14.54 -8.33)"/><path class="g" d="M375.5,165.5c15-5,75-18,75-18l8,12c-20,3-51,11-68,16Z" transform="translate(-14.54 -8.33)"/><ellipse class="g" cx="227.46" cy="292.17" rx="8.5" ry="4"/><ellipse class="g" cx="236.46" cy="422.17" rx="8.5" ry="4"/><polyline class="f" points="227.46 292.17 92.96 355.17 236.46 422.17"/><ellipse class="g" cx="335.46" cy="528.17" rx="13.5" ry="7"/><ellipse class="g" cx="910.96" cy="264.17" rx="8" ry="5"/><ellipse class="g" cx="437.96" cy="184.17" rx="11" ry="5"/><ellipse class="g" cx="630.96" cy="418.17" rx="8" ry="4"/><path class="f" d="M452.5,187.5V20.14H380.25" transform="translate(-14.54 -8.33)"/><polyline class="f" points="910.96 264.17 910.96 104.5 989.96 104.5"/><polyline class="f" points="630.96 418.17 630.96 635.07 708.96 635.07"/><polyline class="f" points="335.46 528.17 335.46 635.07 264.98 635.07"/><text class="h" transform="translate(0 362.87)">Cili<tspan class="i" x="34.22" y="0">	</tspan><tspan x="36" y="0">ndro</tspan></text><text class="h" transform="translate(288 18.87)">Sector</text><text class="h" transform="translate(205 640.87)">Plato</text><text class="h" transform="translate(719 642.87)">Cabezal</text><text class="h" transform="translate(997 112.87)">Pista</text></svg>